<svg width="512" height="386" viewBox="0 0 512 386" fill="none" xmlns="http://www.w3.org/2000/svg">
<g clip-path="url(#clip0_74_516)">
<path opacity="0.24" d="M490.346 269.077C486.208 289.129 473.221 306.035 460.29 321.935C444.514 341.344 427.669 360.865 405.448 372.338C388.519 381.064 369.801 384.497 350.67 385.56C344.001 385.958 337.284 386.042 330.588 385.986C323.221 385.986 315.853 385.734 308.57 385.448C287.755 384.72 266.944 383.979 246.137 383.224C211.743 382.017 177.339 380.789 142.926 379.54C128.052 379.036 113.176 378.512 98.2966 377.966C83.3595 377.435 67.8632 376.785 54.5336 370.003C33.4455 359.264 22.0801 334.897 20.4794 311.272C18.8788 287.647 25.3723 264.351 31.8448 241.565C38.2242 218.995 44.6128 196.433 51.0108 173.878C54.1655 162.798 57.3063 151.697 60.433 140.576C69.324 109.267 83.8348 65.9741 105.377 40.9646C119.888 24.1425 141.906 15.8433 163.448 10.3827C189.956 3.65609 217.183 0.181289 244.53 0.0349566C273.978 -0.104878 305.194 4.30691 328.002 22.9329C358.149 47.4879 358.938 82.0061 371.171 115.539C382.725 147.155 421.93 146.141 446.793 163.586C459.668 172.64 468.643 186.204 475.926 200.153C487.054 221.338 495.183 245.613 490.346 269.077Z" fill="#0071B6"/>
<path d="M375.707 280.236C376.028 267.217 373.694 254.29 372.96 241.285C346.945 260.766 328.827 288.979 321.935 320.746C320.991 325.186 320.271 329.751 320.816 334.261C321.613 340.875 327.743 352.957 335.495 353.789C342.436 354.53 351.914 341.204 355.947 335.897C368.032 319.963 375.218 300.26 375.707 280.236Z" fill="#85D0FF"/>
<path d="M375.197 280.453C375.518 267.434 373.177 254.506 372.443 241.509C346.425 260.987 328.307 289.202 321.417 320.97C320.467 325.41 319.747 329.975 320.292 334.485C321.096 341.092 327.219 353.181 334.97 354.006C341.911 354.747 351.389 341.421 355.43 336.121C367.522 320.18 374.7 300.477 375.197 280.453Z" fill="url(#paint0_linear_74_516)"/>
<path d="M360.966 293.758C361.126 287.004 359.917 280.299 359.533 273.552C346.039 283.657 336.64 298.291 333.062 314.768C332.486 317.051 332.29 319.413 332.482 321.76C332.895 325.193 336.075 331.457 340.108 331.891C343.708 332.275 348.629 325.375 350.718 322.613C357.047 314.292 360.628 304.207 360.966 293.758Z" fill="url(#paint1_linear_74_516)"/>
<path d="M389.624 360.781C392.601 350.992 394.083 340.505 400.066 332.227C407.993 321.291 422.86 315.845 427.921 303.323C430.437 297.1 430.017 290.08 428.773 283.494C428.542 281.792 427.971 280.154 427.096 278.677C425.222 275.88 421.441 274.803 418.149 275.454C414.857 276.104 411.998 278.201 409.698 280.655C401.66 289.213 399.269 302.05 390.826 310.21C382.012 318.739 368.424 320.431 358.931 328.192C350.166 335.387 338.388 368.395 340.877 379.435C343.072 389.146 359.463 379.477 369.626 381.819C380.341 384.329 387.009 369.241 389.624 360.781Z" fill="#85D0FF"/>
<path d="M389.624 360.781C392.601 350.992 394.083 340.505 400.066 332.227C407.993 321.291 422.86 315.845 427.921 303.323C430.437 297.1 430.017 290.08 428.773 283.494C428.542 281.792 427.971 280.154 427.096 278.677C425.222 275.88 421.441 274.803 418.149 275.454C414.857 276.104 411.998 278.201 409.698 280.655C401.66 289.213 399.269 302.05 390.826 310.21C382.012 318.739 368.424 320.431 358.931 328.192C350.159 335.366 336.564 368.66 339.032 379.721C341.219 389.426 359.463 379.498 369.626 381.819C380.341 384.329 387.009 369.241 389.624 360.781Z" fill="url(#paint2_linear_74_516)"/>
<path d="M386.464 338.184C395.285 325.724 410.698 317.299 414.27 302.463C414.815 300.211 414.801 297.345 412.816 296.17C410.188 294.597 407.175 297.429 405.372 299.911C402.289 304.169 399.018 308.371 394.887 311.657C387.436 317.628 377.783 320.145 369.891 325.514C359.26 332.737 351.306 346.259 352.123 359.382C352.452 364.654 354.968 370.695 360.861 371.506C366.991 372.352 370.842 366.612 373.645 362.06C378.433 354.355 381.215 345.588 386.464 338.184Z" fill="url(#paint3_linear_74_516)"/>
<path d="M382.48 304.623C383.09 311.867 383.494 319.126 383.689 326.402C383.941 335.247 383.857 344.301 380.893 352.656C375.784 367.199 362.601 377.652 348.419 383.693C346.089 373.126 343.433 362.638 340.451 352.23C338.396 345.049 336.613 340.407 340.451 333.737C344.644 326.395 351.271 319.921 358.128 315.069C359.959 313.81 382.347 303.05 382.48 304.623Z" fill="#85D0FF"/>
<path d="M370.234 322.934C370.737 328.947 371.073 334.972 371.24 341.008C371.443 348.356 371.373 355.873 368.941 362.801C364.698 374.876 353.962 380.085 342.191 385.091C340.255 376.323 337.843 371.108 335.376 362.452C333.67 356.495 332.189 352.663 335.376 347.07C338.871 340.973 344.358 335.604 350.054 331.576C351.508 330.548 370.094 321.613 370.234 322.934Z" fill="url(#paint4_linear_74_516)"/>
<path d="M350.663 383.944L246.41 382.357L246.144 271.314C246.144 257.494 251.633 244.239 261.402 234.465C271.172 224.692 284.422 219.2 298.239 219.198H298.554C305.396 219.197 312.172 220.544 318.494 223.163C324.816 225.782 330.561 229.621 335.4 234.46C340.239 239.3 344.077 245.045 346.696 251.369C349.315 257.692 350.663 264.47 350.663 271.314V383.944Z" fill="#85D0FF"/>
<path d="M350.663 271.468V385.56C343.994 385.958 337.277 386.042 330.581 385.986C323.214 385.986 315.846 385.734 308.563 385.448C287.748 384.721 266.937 383.979 246.13 383.224V271.468C246.05 264.552 247.343 257.688 249.934 251.275C252.525 244.862 256.362 239.027 261.223 234.108C266.085 229.188 271.873 225.283 278.254 222.617C284.635 219.952 291.482 218.579 298.397 218.579C305.312 218.579 312.158 219.952 318.539 222.617C324.92 225.283 330.708 229.188 335.57 234.108C340.431 239.027 344.268 244.862 346.859 251.275C349.45 257.688 350.743 264.552 350.663 271.468Z" fill="url(#paint5_linear_74_516)"/>
<path d="M119.532 324.571C117.805 319.53 117.162 314.174 115.561 309.091C113.961 304.008 111.158 298.967 106.475 296.422C101.792 293.877 94.9905 294.835 92.4043 299.498C91.3846 301.511 91.0134 303.789 91.3418 306.022C92.2714 313.894 98.8349 320.054 100.582 327.787C101.617 332.38 100.869 337.205 101.547 341.868C102.038 345.129 103.208 348.251 104.98 351.032C106.752 353.812 109.088 356.19 111.836 358.012C114.974 360.061 118.567 361.333 121.768 363.284C125.983 365.861 129.41 369.547 131.673 373.939C134.331 371.526 136.429 368.56 137.819 365.249C139.209 361.938 139.857 358.363 139.718 354.775C139.012 339.211 123.977 337.554 119.532 324.571Z" fill="#85D0FF"/>
<path d="M119.532 324.571C117.805 319.53 117.162 314.174 115.561 309.091C113.961 304.008 111.158 298.967 106.475 296.422C101.792 293.877 94.9905 294.835 92.4043 299.498C91.3846 301.511 91.0134 303.789 91.3418 306.022C92.2714 313.894 98.8349 320.054 100.582 327.787C101.617 332.38 100.869 337.205 101.547 341.868C102.038 345.129 103.208 348.251 104.98 351.032C106.752 353.812 109.088 356.19 111.836 358.012C114.974 360.061 118.567 361.333 121.768 363.284C125.983 365.861 129.41 369.547 131.673 373.939C134.331 371.526 136.429 368.56 137.819 365.249C139.209 361.938 139.857 358.363 139.718 354.775C139.012 339.211 123.977 337.554 119.532 324.571Z" fill="url(#paint6_linear_74_516)"/>
<path d="M137.586 296.604C136.887 293.29 136.929 289.822 135.909 286.591C134.888 283.361 132.414 280.236 129.045 279.893C125.165 279.509 121.796 283.103 121.006 286.927C120.217 290.752 121.328 294.681 122.404 298.428L126.703 313.111C128.038 317.663 128.849 323.683 124.795 326.137C123.832 326.618 122.84 327.038 121.824 327.395C120.133 328.183 118.711 329.449 117.732 331.037C116.753 332.626 116.261 334.466 116.316 336.331C116.533 340.952 120.035 344.644 123.082 348.133C126.13 351.622 129.073 356.068 127.905 360.543C127.039 363.864 123.977 366.745 124.606 370.115C125.13 372.911 128.185 374.659 131.03 374.68C133.875 374.701 136.552 373.443 139.117 372.205L151.37 366.283C155.312 364.375 159.457 362.298 161.806 358.592C163.385 356.117 163.994 353.146 164.287 350.202C165.338 339.011 162.326 327.815 155.802 318.663C149.839 310.307 139.949 307.986 137.586 296.604Z" fill="#85D0FF"/>
<path d="M137.586 296.604C136.887 293.29 136.929 289.822 135.909 286.591C134.888 283.361 132.414 280.236 129.045 279.893C125.165 279.509 121.796 283.103 121.006 286.927C120.217 290.752 121.328 294.681 122.404 298.428L126.703 313.111C128.038 317.663 128.849 323.683 124.795 326.137C123.832 326.618 122.84 327.038 121.824 327.395C120.133 328.183 118.711 329.449 117.732 331.037C116.753 332.626 116.261 334.466 116.316 336.331C116.533 340.952 120.035 344.644 123.082 348.133C126.13 351.622 129.073 356.068 127.905 360.543C127.039 363.864 123.977 366.745 124.606 370.115C125.13 372.911 128.185 374.659 131.03 374.68C133.875 374.701 136.552 373.443 139.117 372.205L151.37 366.283C155.312 364.375 159.457 362.298 161.806 358.592C163.385 356.117 163.994 353.146 164.287 350.202C165.338 339.011 162.326 327.815 155.802 318.663C149.839 310.307 139.949 307.986 137.586 296.604Z" fill="url(#paint7_linear_74_516)"/>
<path opacity="0.24" d="M220.01 279.152H322.899C332.813 279.152 340.849 271.114 340.849 261.197V194.168C340.849 184.251 332.813 176.213 322.899 176.213H220.01C210.096 176.213 202.06 184.251 202.06 194.168V261.197C202.06 271.114 210.096 279.152 220.01 279.152Z" fill="#85D0FF"/>
<g opacity="0.52">
<path d="M254.616 202.844H217.479V205.571H254.616V202.844Z" fill="white"/>
<path d="M240.147 208.116H217.479V210.675H240.147V208.116Z" fill="white"/>
<path d="M320.614 208.116H249.29V210.689H320.614V208.116Z" fill="white"/>
<path d="M260.432 213.402H229.264V216.101H260.432V213.402Z" fill="white"/>
<path d="M276.403 218.667H239.266V221.393H276.403V218.667Z" fill="white"/>
<path d="M309.954 218.667H278.829V221.694H309.954V218.667Z" fill="white"/>
<path d="M267.89 223.938H239.218V226.497H267.89V223.938Z" fill="white"/>
<path d="M329.812 223.938H270.644V226.77H329.812V223.938Z" fill="white"/>
<path d="M254.616 231.077H217.479V233.804H254.616V231.077Z" fill="white"/>
<path d="M240.147 236.342H217.479V238.901H240.147V236.342Z" fill="white"/>
<path d="M320.614 236.342H249.29V238.915H320.614V236.342Z" fill="white"/>
<path d="M260.432 241.614H229.264V244.312H260.432V241.614Z" fill="white"/>
<path d="M276.403 246.899H239.266V249.626H276.403V246.899Z" fill="white"/>
<path d="M309.954 246.899H278.829V249.927H309.954V246.899Z" fill="white"/>
<path d="M267.89 252.171H239.218V254.73H267.89V252.171Z" fill="white"/>
<path d="M329.812 252.171H270.644V255.003H329.812V252.171Z" fill="white"/>
</g>
<path d="M304.467 190.182H372.562C379.12 190.182 384.437 184.864 384.437 178.303V133.941C384.437 127.38 379.12 122.062 372.562 122.062L304.467 122.062C297.908 122.062 292.591 127.38 292.591 133.941V178.303C292.591 184.864 297.908 190.182 304.467 190.182Z" fill="white"/>
<g opacity="0.52">
<path d="M327.373 139.681H302.797V141.485H327.373V139.681Z" fill="#C2E8FF"/>
<path d="M317.797 143.17H302.797V144.862H317.797V143.17Z" fill="#C2E8FF"/>
<path d="M371.052 143.17H323.85V144.876H371.052V143.17Z" fill="#C2E8FF"/>
<path d="M331.224 146.666H310.597V148.449H331.224V146.666Z" fill="#C2E8FF"/>
<path d="M341.793 150.155H317.216V151.958H341.793V150.155Z" fill="#C2E8FF"/>
<path d="M363.992 150.155H343.393V152.154H363.992V150.155Z" fill="#C2E8FF"/>
<path d="M336.159 153.643H317.182V155.335H336.159V153.643Z" fill="#C2E8FF"/>
<path d="M377.133 153.643H337.976V155.517H377.133V153.643Z" fill="#C2E8FF"/>
<path d="M327.373 158.363H302.797V160.167H327.373V158.363Z" fill="#C2E8FF"/>
<path d="M317.797 161.852H302.797V163.544H317.797V161.852Z" fill="#C2E8FF"/>
<path d="M371.052 161.852H323.85V163.558H371.052V161.852Z" fill="#C2E8FF"/>
<path d="M331.224 165.341H310.597V167.124H331.224V165.341Z" fill="#C2E8FF"/>
<path d="M341.793 168.837H317.216V170.64H341.793V168.837Z" fill="#C2E8FF"/>
<path d="M363.992 168.837H343.393V170.836H363.992V168.837Z" fill="#C2E8FF"/>
<path d="M336.159 172.325H317.182V174.017H336.159V172.325Z" fill="#C2E8FF"/>
<path d="M377.133 172.325H337.976V174.199H377.133V172.325Z" fill="#C2E8FF"/>
</g>
<path d="M83.0589 254.031H150.077C156.531 254.031 161.764 248.797 161.764 242.341V198.677C161.764 192.221 156.531 186.987 150.077 186.987H83.0589C76.6044 186.987 71.372 192.221 71.372 198.677V242.341C71.372 248.797 76.6044 254.031 83.0589 254.031Z" fill="white"/>
<g opacity="0.52">
<path d="M105.608 204.327H81.4233V206.103H105.608V204.327Z" fill="#C2E8FF"/>
<path d="M96.1857 207.76H81.4233V209.424H96.1857V207.76Z" fill="#C2E8FF"/>
<path d="M148.581 207.76H102.134V209.438H148.581V207.76Z" fill="#C2E8FF"/>
<path d="M109.396 211.199H89.0981V212.954H109.396V211.199Z" fill="#C2E8FF"/>
<path d="M119.797 214.632H95.6125V216.408H119.797V214.632Z" fill="#C2E8FF"/>
<path d="M141.64 214.632H121.37V216.604H141.64V214.632Z" fill="#C2E8FF"/>
<path d="M114.254 218.065H95.5776V219.729H114.254V218.065Z" fill="#C2E8FF"/>
<path d="M154.578 218.065H116.044V219.911H154.578V218.065Z" fill="#C2E8FF"/>
<path d="M105.608 222.715H81.4233V224.491H105.608V222.715Z" fill="#C2E8FF"/>
<path d="M96.1857 226.148H81.4233V227.812H96.1857V226.148Z" fill="#C2E8FF"/>
<path d="M148.581 226.148H102.134V227.826H148.581V226.148Z" fill="#C2E8FF"/>
<path d="M109.396 229.581H89.0981V231.336H109.396V229.581Z" fill="#C2E8FF"/>
<path d="M119.797 233.021H95.6125V234.797H119.797V233.021Z" fill="#C2E8FF"/>
<path d="M141.64 233.021H121.37V234.992H141.64V233.021Z" fill="#C2E8FF"/>
<path d="M114.254 236.454H95.5776V238.118H114.254V236.454Z" fill="#C2E8FF"/>
<path d="M154.578 236.454H116.044V238.299H154.578V236.454Z" fill="#C2E8FF"/>
</g>
<g opacity="0.24">
<path d="M265.548 95.4023V150.553C265.546 153.798 264.257 156.909 261.963 159.203C259.67 161.497 256.56 162.787 253.316 162.789H195.196L178.015 179.939L164.609 162.789H105.126C103.521 162.788 101.933 162.47 100.451 161.855C98.9693 161.239 97.6235 160.337 96.4906 159.201C95.3578 158.064 94.46 156.716 93.8488 155.232C93.2375 153.748 92.9248 152.158 92.9285 150.553V95.4023C92.9285 92.1633 94.2124 89.0564 96.4988 86.7628C98.7852 84.4692 101.888 83.176 105.126 83.1667H253.309C256.552 83.1723 259.661 84.463 261.955 86.7562C264.249 89.0494 265.541 92.1583 265.548 95.4023Z" fill="#85D0FF"/>
</g>
<path d="M253.316 75.8744H105.161C98.4127 75.8744 92.9425 81.3461 92.9425 88.0959V143.268C92.9425 150.018 98.4127 155.489 105.161 155.489H253.316C260.064 155.489 265.534 150.018 265.534 143.268V88.0959C265.534 81.3461 260.064 75.8744 253.316 75.8744Z" fill="white"/>
<path d="M161.953 152.203L178.05 172.78L197.726 153.098L161.953 152.203Z" fill="white"/>
<path d="M124.669 111.483L141.745 102.695V105.233L127.353 112.448V112.518L141.745 119.734V122.272L124.669 113.476V111.483Z" fill="#C2E8FF"/>
<path d="M142.528 127.424C143.834 127.43 145.094 126.943 146.058 126.061C146.939 125.033 147.274 123.635 147.274 119.363V104.457H150.51V120.615C150.51 124.11 149.958 126.32 148.378 127.942C146.849 129.272 144.883 129.992 142.856 129.962L142.528 127.424ZM150.916 99.4575C150.929 99.7257 150.886 99.9938 150.788 100.244C150.69 100.494 150.541 100.721 150.349 100.909C150.158 101.097 149.929 101.243 149.677 101.336C149.425 101.429 149.157 101.468 148.889 101.45C148.626 101.457 148.364 101.41 148.119 101.312C147.875 101.214 147.653 101.068 147.467 100.881C147.282 100.695 147.136 100.472 147.039 100.227C146.942 99.9827 146.896 99.7207 146.904 99.4575C146.898 99.1869 146.947 98.918 147.049 98.6674C147.151 98.4168 147.304 98.1897 147.497 98.0003C147.69 97.8109 147.92 97.6632 148.173 97.5663C148.425 97.4694 148.695 97.4253 148.966 97.4369C149.226 97.4355 149.484 97.4875 149.723 97.5894C149.962 97.6914 150.179 97.8413 150.358 98.03C150.537 98.2186 150.676 98.4419 150.766 98.6862C150.856 98.9305 150.895 99.1906 150.881 99.4505L150.916 99.4575Z" fill="#C2E8FF"/>
<path d="M165.671 122.272L165.433 120.041H165.322C164.689 120.883 163.866 121.563 162.919 122.024C161.972 122.485 160.929 122.713 159.877 122.691C156.27 122.691 154.432 120.153 154.432 117.573C154.432 113.266 158.255 110.91 165.133 110.945V110.581C165.133 109.106 164.734 106.463 161.086 106.463C159.449 106.467 157.845 106.925 156.452 107.785L155.753 105.687C157.516 104.622 159.543 104.072 161.603 104.1C167.048 104.1 168.369 107.82 168.369 111.392V118.049C168.346 119.479 168.446 120.908 168.67 122.32L165.671 122.272ZM165.196 113.182C161.701 113.105 157.654 113.735 157.654 117.196C157.621 117.607 157.677 118.02 157.818 118.408C157.959 118.796 158.182 119.148 158.472 119.442C158.762 119.735 159.112 119.962 159.498 120.108C159.884 120.254 160.297 120.314 160.708 120.286C161.649 120.31 162.573 120.035 163.347 119.499C164.121 118.964 164.705 118.196 165.014 117.307C165.125 116.973 165.186 116.625 165.196 116.273V113.182Z" fill="#C2E8FF"/>
<path d="M174.52 104.457L178.015 114.448C178.572 115.944 179.053 117.468 179.455 119.013H179.567C179.972 117.538 180.482 116.07 181.07 114.448L184.53 104.436H187.92L180.93 122.251H177.84L171.074 104.436L174.52 104.457Z" fill="#C2E8FF"/>
<path d="M200.683 122.272L200.431 120.027H200.319C199.686 120.87 198.861 121.55 197.913 122.011C196.965 122.472 195.921 122.7 194.867 122.677C191.268 122.677 189.422 120.139 189.422 117.559C189.422 113.252 193.253 110.896 200.131 110.931V110.567C200.131 109.092 199.725 106.449 196.084 106.449C194.447 106.454 192.843 106.911 191.449 107.771L190.715 105.673C192.479 104.608 194.506 104.059 196.566 104.086C202.011 104.086 203.332 107.806 203.332 111.378V118.035C203.309 119.465 203.409 120.894 203.633 122.307L200.683 122.272ZM200.208 113.182C196.671 113.105 192.666 113.735 192.666 117.196C192.632 117.607 192.688 118.02 192.83 118.408C192.971 118.796 193.194 119.148 193.484 119.442C193.774 119.735 194.124 119.962 194.51 120.108C194.896 120.254 195.309 120.314 195.72 120.286C196.661 120.309 197.584 120.033 198.358 119.498C199.131 118.963 199.716 118.196 200.026 117.307C200.137 116.973 200.198 116.625 200.208 116.273V113.182Z" fill="#C2E8FF"/>
<path d="M224.588 113.511L207.519 122.272V119.734L222.051 112.518V112.448L207.554 105.233V102.695L224.623 111.448L224.588 113.511Z" fill="#C2E8FF"/>
<path d="M330.581 333.38V385.986C323.214 385.986 315.846 385.734 308.563 385.448C253.358 383.513 198.139 381.544 142.905 379.54V333.394C142.907 317.883 149.068 303.008 160.033 292.04C170.998 281.073 185.868 274.91 201.375 274.908H272.139C287.64 274.912 302.505 281.074 313.465 292.039C324.424 303.004 330.581 317.875 330.581 333.38Z" fill="#0071B6"/>
<path d="M184.907 289.885C192.302 289.067 200.11 287.626 205.625 282.62C206.925 281.432 208.148 279.621 207.407 278.02C206.743 276.579 204.905 276.202 203.325 276.076C191.974 275.174 180.615 277.929 169.949 281.928C165.986 283.417 161.757 285.2 159.045 288.605C157.213 290.905 155.878 296.184 160.548 296.184C162.19 296.184 164.133 294.408 165.601 293.751C167.597 292.877 169.674 292.2 171.801 291.73C176.1 290.724 180.524 290.374 184.907 289.885Z" fill="url(#paint8_linear_74_516)"/>
<path d="M181.167 267.259L171.438 265.595C171.438 265.595 145.506 276.083 142.933 279.858C140.361 283.634 138.97 311.538 138.97 311.538C138.97 311.538 133.728 316.09 134.713 317.474C135.699 318.858 144.814 313.419 144.814 313.419L151.936 291.835L192.736 268.609L181.167 267.259Z" fill="#606161"/>
<path d="M181.167 267.259L171.438 265.595C171.438 265.595 145.506 276.083 142.933 279.858C140.361 283.634 138.97 311.538 138.97 311.538C138.97 311.538 133.728 316.09 134.713 317.474C135.699 318.858 144.814 313.419 144.814 313.419L151.936 291.835L192.736 268.609L181.167 267.259Z" fill="url(#paint9_linear_74_516)"/>
<path d="M170.788 250.437C169.613 251.591 167.992 251.94 166.685 252.884C165.378 253.828 164.001 254.422 162.875 255.387C162.315 255.876 161.891 256.503 161.646 257.205C161.401 257.908 161.343 258.662 161.477 259.394C161.499 259.586 161.585 259.766 161.722 259.904C161.844 259.967 161.979 259.999 162.117 259.999C162.254 259.999 162.389 259.967 162.512 259.904C163.825 259.395 165.048 258.677 166.132 257.778C166.197 257.716 166.276 257.669 166.362 257.642C166.448 257.615 166.54 257.609 166.629 257.625C166.831 257.702 166.88 257.967 167.02 258.135C167.085 258.202 167.163 258.255 167.249 258.291C167.335 258.327 167.427 258.345 167.52 258.345C167.613 258.345 167.705 258.327 167.791 258.291C167.877 258.255 167.955 258.202 168.02 258.135C168.276 257.869 168.47 257.549 168.586 257.198C169.432 255.206 172.318 255.066 174.31 255.24C176.743 255.45 175.918 254.311 176.247 254.003C176.575 253.695 174.338 252.486 174.52 251.982C175.275 249.868 175.695 247.648 175.764 245.403C175.824 244.803 175.735 244.198 175.506 243.641C174.269 241.18 173.248 244.991 172.961 245.941C172.472 247.508 172.025 249.228 170.788 250.437Z" fill="url(#paint10_linear_74_516)"/>
<path d="M172.794 241.865C172.705 242.143 172.705 242.441 172.794 242.718C172.906 242.956 173.083 243.157 173.304 243.299C174.124 243.901 175.048 244.346 176.03 244.613C176.323 244.71 176.632 244.745 176.939 244.718C177.494 244.598 177.989 244.286 178.337 243.837C180.159 241.76 181.273 239.157 181.517 236.405C181.65 235.174 182.083 230.672 181.056 229.777C179.902 228.77 178.469 231.098 177.694 232.07C175.374 234.944 173.703 238.285 172.794 241.865Z" fill="white"/>
<path d="M178.672 232.958C175.715 240.124 174.534 247.934 174.478 255.688C174.478 258.177 170.879 264.351 172.836 265.896C174.01 266.826 174.129 266.77 175.632 266.987C179.126 267.49 191.009 274.81 194.434 274.209C197.859 273.608 201.13 253.514 201.081 250.787C200.963 243.208 200.305 234.083 194.434 228.525C192.176 226.393 189.304 223.917 186.046 224.854C182.209 225.973 180.112 229.504 178.672 232.958Z" fill="white"/>
<path d="M181.915 229.399C181.915 229.958 181.915 230.651 182.398 230.902C182.606 230.995 182.839 231.02 183.062 230.972C183.519 230.856 183.947 230.647 184.319 230.358C184.692 230.07 185.002 229.707 185.228 229.294C186.091 227.969 186.46 226.382 186.27 224.812C186.067 223.421 185.387 222.144 184.348 221.198C184.231 221.066 184.086 220.962 183.924 220.893C183.762 220.824 183.587 220.792 183.411 220.799C183.221 220.85 183.046 220.946 182.901 221.079C182.31 221.521 181.794 222.055 181.37 222.659C180.951 223.309 181.202 223.68 181.37 224.386C181.806 226.019 181.99 227.71 181.915 229.399Z" fill="url(#paint11_linear_74_516)"/>
<path d="M139.669 248.962L151.754 266.686L165.224 274.489L181.887 266.826L178.211 264.491L167.076 256.569L158.073 260.939L155.305 256.191L139.669 248.962Z" fill="#85D0FF"/>
<path d="M158.073 260.946C158.073 260.946 164.979 270.853 165.021 271.203C165.063 271.552 178.441 265.609 178.441 265.609L167.076 256.52L158.073 260.946Z" fill="url(#paint12_linear_74_516)"/>
<path d="M187.976 235.314C187.976 235.314 185.983 247.459 186.501 248.361C187.018 249.263 189.646 250.353 189.646 250.353C189.646 250.353 188.751 255.171 182.579 256.331C176.407 257.492 177.687 262.561 177.687 262.561C177.687 262.561 181.028 264.875 187.074 264.106C193.12 263.337 196.161 263.204 197.607 260.89C199.054 258.576 200.054 249.703 199.005 246.109C197.957 242.516 187.976 235.314 187.976 235.314Z" fill="url(#paint13_linear_74_516)"/>
<path d="M189.856 253.702C187.584 255.891 184.397 256.821 181.307 257.464C178.674 258.013 176.011 258.405 173.332 258.638C171.494 258.806 169.585 258.911 167.936 259.75C166.286 260.589 164.972 262.414 165.364 264.218C171.533 263.892 177.703 263.519 183.872 263.099C187.151 262.875 190.478 262.631 193.581 261.561C195.755 260.813 197.936 259.505 198.796 257.366C199.106 256.504 199.276 255.597 199.299 254.681C199.397 252.403 199.348 250.122 199.152 247.85C199.156 246.313 198.849 244.791 198.25 243.376C196.643 240.159 192.61 240.299 192.044 243.795C191.435 247.536 193.134 250.549 189.856 253.702Z" fill="url(#paint14_linear_74_516)"/>
<path d="M186.759 233.224L190.995 247.207C190.995 247.207 200.082 246.92 201.025 245.277C201.969 243.634 198.845 231.21 194.441 228.546C190.037 225.882 186.85 228.98 186.759 233.224Z" fill="white"/>
<path d="M181.167 267.259L148.973 284.417L146.463 314.691C146.463 314.691 141.452 319.32 141.452 320.669C141.452 322.019 144.15 321.25 148.204 319.704C150.409 318.921 152.486 317.816 154.369 316.425L159.96 290.975C159.96 290.975 193.309 286.347 195.818 279.404C196.556 277.515 196.655 275.436 196.098 273.486C195.541 271.536 194.36 269.822 192.736 268.609L181.167 267.259Z" fill="#606161"/>
<path d="M151.601 266.322L164.091 273.79L153.425 257.771L140.641 250.857L151.601 266.322Z" fill="url(#paint15_linear_74_516)"/>
<path d="M173.821 224.162C174.198 224.874 174.669 225.532 175.219 226.12C176.01 226.872 177.015 227.358 178.094 227.512C179.174 227.667 180.275 227.48 181.244 226.98C182.626 226.172 183.642 224.862 184.082 223.323C184.52 221.796 184.596 220.187 184.306 218.625C184.037 216.4 182.998 214.34 181.37 212.801C180.146 211.833 178.708 211.174 177.176 210.878C176.457 210.681 175.703 210.642 174.968 210.766C174.276 210.963 173.627 211.285 173.052 211.717C172.396 212.123 171.797 212.615 171.27 213.178C168.768 216.101 172.332 221.603 173.821 224.162Z" fill="url(#paint16_linear_74_516)"/>
<path d="M182.384 218.436C182.527 218.329 182.641 218.188 182.715 218.025C182.79 217.863 182.822 217.684 182.81 217.506C182.81 217.149 182.726 216.807 182.726 216.436C182.72 216.34 182.739 216.243 182.782 216.157C182.936 215.87 183.397 215.996 183.607 216.248C184.159 216.947 183.803 217.933 183.831 218.813C183.861 219.465 184.121 220.084 184.564 220.561C185.099 219.13 185.295 217.595 185.139 216.076C184.982 214.556 184.477 213.093 183.663 211.801C183.486 211.568 183.347 211.308 183.25 211.032C183.083 210.458 183.313 209.843 183.215 209.256C183.062 208.263 182.02 207.634 181.021 207.487C180.021 207.34 179.008 207.536 178.001 207.487C177.302 207.438 176.603 207.27 175.939 207.249C175.207 207.252 174.478 207.353 173.772 207.55C172.095 207.962 170.375 208.571 169.215 209.85C167.817 211.367 167.481 213.542 167.37 215.59C167.307 216.772 167.37 218.114 168.257 218.897C168.954 219.414 169.823 219.64 170.683 219.527C171.594 219.521 172.477 219.206 173.185 218.632C173.822 217.892 174.317 217.041 174.646 216.122C174.687 216.023 174.758 215.94 174.849 215.884C174.944 215.852 175.047 215.852 175.142 215.884C175.789 216.056 176.452 216.164 177.12 216.206C177.457 216.222 177.794 216.168 178.109 216.047C178.424 215.927 178.711 215.743 178.952 215.506C179.017 215.412 179.114 215.343 179.224 215.311C179.311 215.304 179.397 215.326 179.469 215.374C180.14 215.608 180.781 215.922 181.377 216.31C181.817 216.965 182.156 217.681 182.384 218.436Z" fill="#606161"/>
</g>
<defs>
<linearGradient id="paint0_linear_74_516" x1="368.109" y1="281.086" x2="280.347" y2="389.058" gradientUnits="userSpaceOnUse">
<stop stop-color="#010101" stop-opacity="0"/>
<stop offset="0.95" stop-color="#010101"/>
</linearGradient>
<linearGradient id="paint1_linear_74_516" x1="379.016" y1="287.415" x2="217.931" y2="375.996" gradientUnits="userSpaceOnUse">
<stop stop-color="#010101" stop-opacity="0"/>
<stop offset="0.95" stop-color="#010101"/>
</linearGradient>
<linearGradient id="paint2_linear_74_516" x1="408.241" y1="327.559" x2="216.988" y2="350.558" gradientUnits="userSpaceOnUse">
<stop stop-color="#010101" stop-opacity="0"/>
<stop offset="0.95" stop-color="#010101"/>
</linearGradient>
<linearGradient id="paint3_linear_74_516" x1="421.1" y1="335.192" x2="223.435" y2="328.196" gradientUnits="userSpaceOnUse">
<stop stop-color="#010101" stop-opacity="0"/>
<stop offset="0.95" stop-color="#010101"/>
</linearGradient>
<linearGradient id="paint4_linear_74_516" x1="382.14" y1="338.652" x2="243.068" y2="423.52" gradientUnits="userSpaceOnUse">
<stop stop-color="#0071B6" stop-opacity="0"/>
<stop offset="0.95" stop-color="#010101"/>
</linearGradient>
<linearGradient id="paint5_linear_74_516" x1="321.522" y1="287.256" x2="175.514" y2="495.55" gradientUnits="userSpaceOnUse">
<stop stop-color="#0071B6" stop-opacity="0"/>
<stop offset="0.95" stop-color="#010101"/>
</linearGradient>
<linearGradient id="paint6_linear_74_516" x1="106.188" y1="330.597" x2="169.54" y2="352.764" gradientUnits="userSpaceOnUse">
<stop stop-color="#010101" stop-opacity="0"/>
<stop offset="0.95" stop-color="#010101"/>
</linearGradient>
<linearGradient id="paint7_linear_74_516" x1="120.909" y1="324.081" x2="259.092" y2="374.348" gradientUnits="userSpaceOnUse">
<stop stop-color="#010101" stop-opacity="0"/>
<stop offset="0.95" stop-color="#010101"/>
</linearGradient>
<linearGradient id="paint8_linear_74_516" x1="184.32" y1="292.346" x2="170.851" y2="247.202" gradientUnits="userSpaceOnUse">
<stop stop-color="#010101" stop-opacity="0"/>
<stop offset="0.95" stop-color="#010101"/>
</linearGradient>
<linearGradient id="paint9_linear_74_516" x1="134.595" y1="291.653" x2="192.736" y2="291.653" gradientUnits="userSpaceOnUse">
<stop stop-color="#010101" stop-opacity="0"/>
<stop offset="0.95" stop-color="#010101"/>
</linearGradient>
<linearGradient id="paint10_linear_74_516" x1="161.428" y1="251.402" x2="176.282" y2="251.402" gradientUnits="userSpaceOnUse">
<stop stop-color="#E5C6D6"/>
<stop offset="0.42" stop-color="#EAD4D0"/>
<stop offset="1" stop-color="#F0E9CB"/>
</linearGradient>
<linearGradient id="paint11_linear_74_516" x1="181.139" y1="225.889" x2="186.326" y2="225.889" gradientUnits="userSpaceOnUse">
<stop stop-color="#E5C6D6"/>
<stop offset="0.42" stop-color="#EAD4D0"/>
<stop offset="1" stop-color="#F0E9CB"/>
</linearGradient>
<linearGradient id="paint12_linear_74_516" x1="175.07" y1="259.861" x2="149.555" y2="272.695" gradientUnits="userSpaceOnUse">
<stop stop-color="#010101" stop-opacity="0"/>
<stop offset="0.95" stop-color="#010101"/>
</linearGradient>
<linearGradient id="paint13_linear_74_516" x1="182.761" y1="249.144" x2="278.594" y2="273.623" gradientUnits="userSpaceOnUse">
<stop stop-color="#010101" stop-opacity="0"/>
<stop offset="0.95" stop-color="#010101"/>
</linearGradient>
<linearGradient id="paint14_linear_74_516" x1="165.294" y1="252.647" x2="199.362" y2="252.647" gradientUnits="userSpaceOnUse">
<stop stop-color="#E5C6D6"/>
<stop offset="0.42" stop-color="#EAD4D0"/>
<stop offset="1" stop-color="#F0E9CB"/>
</linearGradient>
<linearGradient id="paint15_linear_74_516" x1="160.145" y1="270.5" x2="117.16" y2="222.698" gradientUnits="userSpaceOnUse">
<stop stop-color="#010101" stop-opacity="0"/>
<stop offset="0.95" stop-color="#010101"/>
</linearGradient>
<linearGradient id="paint16_linear_74_516" x1="182.034" y1="217.115" x2="171.136" y2="221.916" gradientUnits="userSpaceOnUse">
<stop stop-color="#E5C6D6"/>
<stop offset="0.42" stop-color="#EAD4D0"/>
<stop offset="1" stop-color="#F0E9CB"/>
</linearGradient>
<clipPath id="clip0_74_516">
<rect width="512" height="386" fill="white"/>
</clipPath>
</defs>
</svg>
