<svg width="1160" height="75" viewBox="0 0 1160 75" fill="none" xmlns="http://www.w3.org/2000/svg">
<line y1="35.5" x2="1154" y2="35.5" stroke="black" stroke-dasharray="2 2"/>
<rect x="1.5" y="2.5" width="160" height="71" rx="18.5" fill="white"/>
<rect x="1.5" y="2.5" width="160" height="71" rx="18.5" stroke="#C2E8FF" stroke-width="3"/>
<rect x="1.5" y="2.5" width="160" height="71" rx="18.5" stroke="#0F9D58" stroke-width="3"/>
<path d="M66.12 31.06V32.54H62.32V45H60.5V32.54H56.68V31.06H66.12ZM78.0803 34.04V45H76.2603V43.38C75.9136 43.94 75.427 44.38 74.8003 44.7C74.187 45.0067 73.507 45.16 72.7603 45.16C71.907 45.16 71.1403 44.9867 70.4603 44.64C69.7803 44.28 69.2403 43.7467 68.8403 43.04C68.4536 42.3333 68.2603 41.4733 68.2603 40.46V34.04H70.0603V40.22C70.0603 41.3 70.3336 42.1333 70.8803 42.72C71.427 43.2933 72.1736 43.58 73.1203 43.58C74.0936 43.58 74.8603 43.28 75.4203 42.68C75.9803 42.08 76.2603 41.2067 76.2603 40.06V34.04H78.0803ZM85.6733 33.86C86.6199 33.86 87.4466 34.0667 88.1533 34.48C88.8733 34.8933 89.4066 35.4133 89.7533 36.04V34.04H91.5933V45.24C91.5933 46.24 91.3799 47.1267 90.9533 47.9C90.5266 48.6867 89.9133 49.3 89.1133 49.74C88.3266 50.18 87.4066 50.4 86.3533 50.4C84.9133 50.4 83.7133 50.06 82.7533 49.38C81.7933 48.7 81.2266 47.7733 81.0533 46.6H82.8533C83.0533 47.2667 83.4666 47.8 84.0933 48.2C84.7199 48.6133 85.4733 48.82 86.3533 48.82C87.3533 48.82 88.1666 48.5067 88.7933 47.88C89.4333 47.2533 89.7533 46.3733 89.7533 45.24V42.94C89.3933 43.58 88.8599 44.1133 88.1533 44.54C87.4466 44.9667 86.6199 45.18 85.6733 45.18C84.6999 45.18 83.8133 44.94 83.0133 44.46C82.2266 43.98 81.6066 43.3067 81.1533 42.44C80.6999 41.5733 80.4733 40.5867 80.4733 39.48C80.4733 38.36 80.6999 37.38 81.1533 36.54C81.6066 35.6867 82.2266 35.0267 83.0133 34.56C83.8133 34.0933 84.6999 33.86 85.6733 33.86ZM89.7533 39.5C89.7533 38.6733 89.5866 37.9533 89.2533 37.34C88.9199 36.7267 88.4666 36.26 87.8933 35.94C87.3333 35.6067 86.7133 35.44 86.0333 35.44C85.3533 35.44 84.7333 35.6 84.1733 35.92C83.6133 36.24 83.1666 36.7067 82.8333 37.32C82.4999 37.9333 82.3333 38.6533 82.3333 39.48C82.3333 40.32 82.4999 41.0533 82.8333 41.68C83.1666 42.2933 83.6133 42.7667 84.1733 43.1C84.7333 43.42 85.3533 43.58 86.0333 43.58C86.7133 43.58 87.3333 43.42 87.8933 43.1C88.4666 42.7667 88.9199 42.2933 89.2533 41.68C89.5866 41.0533 89.7533 40.3267 89.7533 39.5ZM93.9889 39.48C93.9889 38.36 94.2156 37.38 94.6689 36.54C95.1222 35.6867 95.7422 35.0267 96.5289 34.56C97.3289 34.0933 98.2156 33.86 99.1889 33.86C100.149 33.86 100.982 34.0667 101.689 34.48C102.396 34.8933 102.922 35.4133 103.269 36.04V34.04H105.109V45H103.269V42.96C102.909 43.6 102.369 44.1333 101.649 44.56C100.942 44.9733 100.116 45.18 99.1689 45.18C98.1956 45.18 97.3156 44.94 96.5289 44.46C95.7422 43.98 95.1222 43.3067 94.6689 42.44C94.2156 41.5733 93.9889 40.5867 93.9889 39.48ZM103.269 39.5C103.269 38.6733 103.102 37.9533 102.769 37.34C102.436 36.7267 101.982 36.26 101.409 35.94C100.849 35.6067 100.229 35.44 99.5489 35.44C98.8689 35.44 98.2489 35.6 97.6889 35.92C97.1289 36.24 96.6822 36.7067 96.3489 37.32C96.0156 37.9333 95.8489 38.6533 95.8489 39.48C95.8489 40.32 96.0156 41.0533 96.3489 41.68C96.6822 42.2933 97.1289 42.7667 97.6889 43.1C98.2489 43.42 98.8689 43.58 99.5489 43.58C100.229 43.58 100.849 43.42 101.409 43.1C101.982 42.7667 102.436 42.2933 102.769 41.68C103.102 41.0533 103.269 40.3267 103.269 39.5ZM112.065 45.18C111.225 45.18 110.471 45.04 109.805 44.76C109.138 44.4667 108.611 44.0667 108.225 43.56C107.838 43.04 107.625 42.4467 107.585 41.78H109.465C109.518 42.3267 109.771 42.7733 110.225 43.12C110.691 43.4667 111.298 43.64 112.045 43.64C112.738 43.64 113.285 43.4867 113.685 43.18C114.085 42.8733 114.285 42.4867 114.285 42.02C114.285 41.54 114.071 41.1867 113.645 40.96C113.218 40.72 112.558 40.4867 111.665 40.26C110.851 40.0467 110.185 39.8333 109.665 39.62C109.158 39.3933 108.718 39.0667 108.345 38.64C107.985 38.2 107.805 37.6267 107.805 36.92C107.805 36.36 107.971 35.8467 108.305 35.38C108.638 34.9133 109.111 34.5467 109.725 34.28C110.338 34 111.038 33.86 111.825 33.86C113.038 33.86 114.018 34.1667 114.765 34.78C115.511 35.3933 115.911 36.2333 115.965 37.3H114.145C114.105 36.7267 113.871 36.2667 113.445 35.92C113.031 35.5733 112.471 35.4 111.765 35.4C111.111 35.4 110.591 35.54 110.205 35.82C109.818 36.1 109.625 36.4667 109.625 36.92C109.625 37.28 109.738 37.58 109.965 37.82C110.205 38.0467 110.498 38.2333 110.845 38.38C111.205 38.5133 111.698 38.6667 112.325 38.84C113.111 39.0533 113.751 39.2667 114.245 39.48C114.738 39.68 115.158 39.9867 115.505 40.4C115.865 40.8133 116.051 41.3533 116.065 42.02C116.065 42.62 115.898 43.16 115.565 43.64C115.231 44.12 114.758 44.5 114.145 44.78C113.545 45.0467 112.851 45.18 112.065 45.18ZM123.186 32.2V30.54H126.946V45H125.106V32.2H123.186Z" fill="black"/>
<path d="M23.1561 29.7343H20.5781V47.7808C20.5781 49.1987 21.7382 50.3588 23.1561 50.3588H41.2026V47.7808H23.1561V29.7343ZM43.7807 24.5781H28.3123C26.8943 24.5781 25.7342 25.7383 25.7342 27.1562V42.6246C25.7342 44.0426 26.8943 45.2027 28.3123 45.2027H43.7807C45.1986 45.2027 46.3588 44.0426 46.3588 42.6246V27.1562C46.3588 25.7383 45.1986 24.5781 43.7807 24.5781ZM43.7807 42.6246H28.3123V27.1562H43.7807V42.6246ZM30.8903 33.6014H41.2026V36.1794H30.8903V33.6014ZM30.8903 37.4685H36.0465V40.0465H30.8903V37.4685ZM30.8903 29.7343H41.2026V32.3123H30.8903V29.7343Z" fill="black"/>
<rect x="998.5" y="2.5" width="160" height="71" rx="18.5" fill="white"/>
<rect x="998.5" y="2.5" width="160" height="71" rx="18.5" stroke="#C2E8FF" stroke-width="3"/>
<rect x="998.5" y="2.5" width="160" height="71" rx="18.5" stroke="#0F9D58" stroke-width="3"/>
<path d="M1063.12 31.06V32.54H1059.32V45H1057.5V32.54H1053.68V31.06H1063.12ZM1075.08 34.04V45H1073.26V43.38C1072.91 43.94 1072.43 44.38 1071.8 44.7C1071.19 45.0067 1070.51 45.16 1069.76 45.16C1068.91 45.16 1068.14 44.9867 1067.46 44.64C1066.78 44.28 1066.24 43.7467 1065.84 43.04C1065.45 42.3333 1065.26 41.4733 1065.26 40.46V34.04H1067.06V40.22C1067.06 41.3 1067.33 42.1333 1067.88 42.72C1068.43 43.2933 1069.17 43.58 1070.12 43.58C1071.09 43.58 1071.86 43.28 1072.42 42.68C1072.98 42.08 1073.26 41.2067 1073.26 40.06V34.04H1075.08ZM1082.67 33.86C1083.62 33.86 1084.45 34.0667 1085.15 34.48C1085.87 34.8933 1086.41 35.4133 1086.75 36.04V34.04H1088.59V45.24C1088.59 46.24 1088.38 47.1267 1087.95 47.9C1087.53 48.6867 1086.91 49.3 1086.11 49.74C1085.33 50.18 1084.41 50.4 1083.35 50.4C1081.91 50.4 1080.71 50.06 1079.75 49.38C1078.79 48.7 1078.23 47.7733 1078.05 46.6H1079.85C1080.05 47.2667 1080.47 47.8 1081.09 48.2C1081.72 48.6133 1082.47 48.82 1083.35 48.82C1084.35 48.82 1085.17 48.5067 1085.79 47.88C1086.43 47.2533 1086.75 46.3733 1086.75 45.24V42.94C1086.39 43.58 1085.86 44.1133 1085.15 44.54C1084.45 44.9667 1083.62 45.18 1082.67 45.18C1081.7 45.18 1080.81 44.94 1080.01 44.46C1079.23 43.98 1078.61 43.3067 1078.15 42.44C1077.7 41.5733 1077.47 40.5867 1077.47 39.48C1077.47 38.36 1077.7 37.38 1078.15 36.54C1078.61 35.6867 1079.23 35.0267 1080.01 34.56C1080.81 34.0933 1081.7 33.86 1082.67 33.86ZM1086.75 39.5C1086.75 38.6733 1086.59 37.9533 1086.25 37.34C1085.92 36.7267 1085.47 36.26 1084.89 35.94C1084.33 35.6067 1083.71 35.44 1083.03 35.44C1082.35 35.44 1081.73 35.6 1081.17 35.92C1080.61 36.24 1080.17 36.7067 1079.83 37.32C1079.5 37.9333 1079.33 38.6533 1079.33 39.48C1079.33 40.32 1079.5 41.0533 1079.83 41.68C1080.17 42.2933 1080.61 42.7667 1081.17 43.1C1081.73 43.42 1082.35 43.58 1083.03 43.58C1083.71 43.58 1084.33 43.42 1084.89 43.1C1085.47 42.7667 1085.92 42.2933 1086.25 41.68C1086.59 41.0533 1086.75 40.3267 1086.75 39.5ZM1090.99 39.48C1090.99 38.36 1091.22 37.38 1091.67 36.54C1092.12 35.6867 1092.74 35.0267 1093.53 34.56C1094.33 34.0933 1095.22 33.86 1096.19 33.86C1097.15 33.86 1097.98 34.0667 1098.69 34.48C1099.4 34.8933 1099.92 35.4133 1100.27 36.04V34.04H1102.11V45H1100.27V42.96C1099.91 43.6 1099.37 44.1333 1098.65 44.56C1097.94 44.9733 1097.12 45.18 1096.17 45.18C1095.2 45.18 1094.32 44.94 1093.53 44.46C1092.74 43.98 1092.12 43.3067 1091.67 42.44C1091.22 41.5733 1090.99 40.5867 1090.99 39.48ZM1100.27 39.5C1100.27 38.6733 1100.1 37.9533 1099.77 37.34C1099.44 36.7267 1098.98 36.26 1098.41 35.94C1097.85 35.6067 1097.23 35.44 1096.55 35.44C1095.87 35.44 1095.25 35.6 1094.69 35.92C1094.13 36.24 1093.68 36.7067 1093.35 37.32C1093.02 37.9333 1092.85 38.6533 1092.85 39.48C1092.85 40.32 1093.02 41.0533 1093.35 41.68C1093.68 42.2933 1094.13 42.7667 1094.69 43.1C1095.25 43.42 1095.87 43.58 1096.55 43.58C1097.23 43.58 1097.85 43.42 1098.41 43.1C1098.98 42.7667 1099.44 42.2933 1099.77 41.68C1100.1 41.0533 1100.27 40.3267 1100.27 39.5ZM1109.06 45.18C1108.22 45.18 1107.47 45.04 1106.8 44.76C1106.14 44.4667 1105.61 44.0667 1105.22 43.56C1104.84 43.04 1104.62 42.4467 1104.58 41.78H1106.46C1106.52 42.3267 1106.77 42.7733 1107.22 43.12C1107.69 43.4667 1108.3 43.64 1109.04 43.64C1109.74 43.64 1110.28 43.4867 1110.68 43.18C1111.08 42.8733 1111.28 42.4867 1111.28 42.02C1111.28 41.54 1111.07 41.1867 1110.64 40.96C1110.22 40.72 1109.56 40.4867 1108.66 40.26C1107.85 40.0467 1107.18 39.8333 1106.66 39.62C1106.16 39.3933 1105.72 39.0667 1105.34 38.64C1104.98 38.2 1104.8 37.6267 1104.8 36.92C1104.8 36.36 1104.97 35.8467 1105.3 35.38C1105.64 34.9133 1106.11 34.5467 1106.72 34.28C1107.34 34 1108.04 33.86 1108.82 33.86C1110.04 33.86 1111.02 34.1667 1111.76 34.78C1112.51 35.3933 1112.91 36.2333 1112.96 37.3H1111.14C1111.1 36.7267 1110.87 36.2667 1110.44 35.92C1110.03 35.5733 1109.47 35.4 1108.76 35.4C1108.11 35.4 1107.59 35.54 1107.2 35.82C1106.82 36.1 1106.62 36.4667 1106.62 36.92C1106.62 37.28 1106.74 37.58 1106.96 37.82C1107.2 38.0467 1107.5 38.2333 1107.84 38.38C1108.2 38.5133 1108.7 38.6667 1109.32 38.84C1110.11 39.0533 1110.75 39.2667 1111.24 39.48C1111.74 39.68 1112.16 39.9867 1112.5 40.4C1112.86 40.8133 1113.05 41.3533 1113.06 42.02C1113.06 42.62 1112.9 43.16 1112.56 43.64C1112.23 44.12 1111.76 44.5 1111.14 44.78C1110.54 45.0467 1109.85 45.18 1109.06 45.18ZM1129.89 32.12H1122.87V36.68C1123.17 36.2533 1123.63 35.9067 1124.23 35.64C1124.83 35.36 1125.47 35.22 1126.17 35.22C1127.27 35.22 1128.17 35.4533 1128.87 35.92C1129.56 36.3733 1130.05 36.9667 1130.35 37.7C1130.65 38.42 1130.81 39.1867 1130.81 40C1130.81 40.96 1130.63 41.82 1130.27 42.58C1129.91 43.34 1129.35 43.94 1128.61 44.38C1127.87 44.82 1126.96 45.04 1125.87 45.04C1124.47 45.04 1123.33 44.68 1122.47 43.96C1121.6 43.24 1121.07 42.28 1120.89 41.08H1122.67C1122.84 41.84 1123.21 42.4333 1123.77 42.86C1124.33 43.2867 1125.03 43.5 1125.89 43.5C1126.94 43.5 1127.73 43.1867 1128.27 42.56C1128.8 41.92 1129.07 41.08 1129.07 40.04C1129.07 39 1128.8 38.2 1128.27 37.64C1127.73 37.0667 1126.95 36.78 1125.91 36.78C1125.2 36.78 1124.58 36.9533 1124.05 37.3C1123.53 37.6333 1123.15 38.0933 1122.91 38.68H1121.19V30.52H1129.89V32.12Z" fill="black"/>
<path d="M1020.16 29.7343H1017.58V47.7808C1017.58 49.1987 1018.74 50.3588 1020.16 50.3588H1038.2V47.7808H1020.16V29.7343ZM1040.78 24.5781H1025.31C1023.89 24.5781 1022.73 25.7383 1022.73 27.1562V42.6246C1022.73 44.0426 1023.89 45.2027 1025.31 45.2027H1040.78C1042.2 45.2027 1043.36 44.0426 1043.36 42.6246V27.1562C1043.36 25.7383 1042.2 24.5781 1040.78 24.5781ZM1040.78 42.6246H1025.31V27.1562H1040.78V42.6246ZM1027.89 33.6014H1038.2V36.1794H1027.89V33.6014ZM1027.89 37.4685H1033.05V40.0465H1027.89V37.4685ZM1027.89 29.7343H1038.2V32.3123H1027.89V29.7343Z" fill="black"/>
<rect x="251.5" y="2.5" width="160" height="71" rx="18.5" fill="white"/>
<rect x="251.5" y="2.5" width="160" height="71" rx="18.5" stroke="#C2E8FF" stroke-width="3"/>
<rect x="251.5" y="2.5" width="160" height="71" rx="18.5" stroke="#0F9D58" stroke-width="3"/>
<path d="M316.12 31.06V32.54H312.32V45H310.5V32.54H306.68V31.06H316.12ZM328.08 34.04V45H326.26V43.38C325.914 43.94 325.427 44.38 324.8 44.7C324.187 45.0067 323.507 45.16 322.76 45.16C321.907 45.16 321.14 44.9867 320.46 44.64C319.78 44.28 319.24 43.7467 318.84 43.04C318.454 42.3333 318.26 41.4733 318.26 40.46V34.04H320.06V40.22C320.06 41.3 320.334 42.1333 320.88 42.72C321.427 43.2933 322.174 43.58 323.12 43.58C324.094 43.58 324.86 43.28 325.42 42.68C325.98 42.08 326.26 41.2067 326.26 40.06V34.04H328.08ZM335.673 33.86C336.62 33.86 337.447 34.0667 338.153 34.48C338.873 34.8933 339.407 35.4133 339.753 36.04V34.04H341.593V45.24C341.593 46.24 341.38 47.1267 340.953 47.9C340.527 48.6867 339.913 49.3 339.113 49.74C338.327 50.18 337.407 50.4 336.353 50.4C334.913 50.4 333.713 50.06 332.753 49.38C331.793 48.7 331.227 47.7733 331.053 46.6H332.853C333.053 47.2667 333.467 47.8 334.093 48.2C334.72 48.6133 335.473 48.82 336.353 48.82C337.353 48.82 338.167 48.5067 338.793 47.88C339.433 47.2533 339.753 46.3733 339.753 45.24V42.94C339.393 43.58 338.86 44.1133 338.153 44.54C337.447 44.9667 336.62 45.18 335.673 45.18C334.7 45.18 333.813 44.94 333.013 44.46C332.227 43.98 331.607 43.3067 331.153 42.44C330.7 41.5733 330.473 40.5867 330.473 39.48C330.473 38.36 330.7 37.38 331.153 36.54C331.607 35.6867 332.227 35.0267 333.013 34.56C333.813 34.0933 334.7 33.86 335.673 33.86ZM339.753 39.5C339.753 38.6733 339.587 37.9533 339.253 37.34C338.92 36.7267 338.467 36.26 337.893 35.94C337.333 35.6067 336.713 35.44 336.033 35.44C335.353 35.44 334.733 35.6 334.173 35.92C333.613 36.24 333.167 36.7067 332.833 37.32C332.5 37.9333 332.333 38.6533 332.333 39.48C332.333 40.32 332.5 41.0533 332.833 41.68C333.167 42.2933 333.613 42.7667 334.173 43.1C334.733 43.42 335.353 43.58 336.033 43.58C336.713 43.58 337.333 43.42 337.893 43.1C338.467 42.7667 338.92 42.2933 339.253 41.68C339.587 41.0533 339.753 40.3267 339.753 39.5ZM343.989 39.48C343.989 38.36 344.216 37.38 344.669 36.54C345.122 35.6867 345.742 35.0267 346.529 34.56C347.329 34.0933 348.216 33.86 349.189 33.86C350.149 33.86 350.982 34.0667 351.689 34.48C352.396 34.8933 352.922 35.4133 353.269 36.04V34.04H355.109V45H353.269V42.96C352.909 43.6 352.369 44.1333 351.649 44.56C350.942 44.9733 350.116 45.18 349.169 45.18C348.196 45.18 347.316 44.94 346.529 44.46C345.742 43.98 345.122 43.3067 344.669 42.44C344.216 41.5733 343.989 40.5867 343.989 39.48ZM353.269 39.5C353.269 38.6733 353.102 37.9533 352.769 37.34C352.436 36.7267 351.982 36.26 351.409 35.94C350.849 35.6067 350.229 35.44 349.549 35.44C348.869 35.44 348.249 35.6 347.689 35.92C347.129 36.24 346.682 36.7067 346.349 37.32C346.016 37.9333 345.849 38.6533 345.849 39.48C345.849 40.32 346.016 41.0533 346.349 41.68C346.682 42.2933 347.129 42.7667 347.689 43.1C348.249 43.42 348.869 43.58 349.549 43.58C350.229 43.58 350.849 43.42 351.409 43.1C351.982 42.7667 352.436 42.2933 352.769 41.68C353.102 41.0533 353.269 40.3267 353.269 39.5ZM362.065 45.18C361.225 45.18 360.471 45.04 359.805 44.76C359.138 44.4667 358.611 44.0667 358.225 43.56C357.838 43.04 357.625 42.4467 357.585 41.78H359.465C359.518 42.3267 359.771 42.7733 360.225 43.12C360.691 43.4667 361.298 43.64 362.045 43.64C362.738 43.64 363.285 43.4867 363.685 43.18C364.085 42.8733 364.285 42.4867 364.285 42.02C364.285 41.54 364.071 41.1867 363.645 40.96C363.218 40.72 362.558 40.4867 361.665 40.26C360.851 40.0467 360.185 39.8333 359.665 39.62C359.158 39.3933 358.718 39.0667 358.345 38.64C357.985 38.2 357.805 37.6267 357.805 36.92C357.805 36.36 357.971 35.8467 358.305 35.38C358.638 34.9133 359.111 34.5467 359.725 34.28C360.338 34 361.038 33.86 361.825 33.86C363.038 33.86 364.018 34.1667 364.765 34.78C365.511 35.3933 365.911 36.2333 365.965 37.3H364.145C364.105 36.7267 363.871 36.2667 363.445 35.92C363.031 35.5733 362.471 35.4 361.765 35.4C361.111 35.4 360.591 35.54 360.205 35.82C359.818 36.1 359.625 36.4667 359.625 36.92C359.625 37.28 359.738 37.58 359.965 37.82C360.205 38.0467 360.498 38.2333 360.845 38.38C361.205 38.5133 361.698 38.6667 362.325 38.84C363.111 39.0533 363.751 39.2667 364.245 39.48C364.738 39.68 365.158 39.9867 365.505 40.4C365.865 40.8133 366.051 41.3533 366.065 42.02C366.065 42.62 365.898 43.16 365.565 43.64C365.231 44.12 364.758 44.5 364.145 44.78C363.545 45.0467 362.851 45.18 362.065 45.18ZM373.446 43.54C375.139 42.18 376.466 41.0667 377.426 40.2C378.386 39.32 379.192 38.4067 379.846 37.46C380.512 36.5 380.846 35.56 380.846 34.64C380.846 33.7733 380.632 33.0933 380.206 32.6C379.792 32.0933 379.119 31.84 378.186 31.84C377.279 31.84 376.572 32.1267 376.066 32.7C375.572 33.26 375.306 34.0133 375.266 34.96H373.506C373.559 33.4667 374.012 32.3133 374.866 31.5C375.719 30.6867 376.819 30.28 378.166 30.28C379.539 30.28 380.626 30.66 381.426 31.42C382.239 32.18 382.646 33.2267 382.646 34.56C382.646 35.6667 382.312 36.7467 381.646 37.8C380.992 38.84 380.246 39.76 379.406 40.56C378.566 41.3467 377.492 42.2667 376.186 43.32H383.066V44.84H373.446V43.54Z" fill="black"/>
<path d="M273.156 29.7343H270.578V47.7808C270.578 49.1987 271.738 50.3588 273.156 50.3588H291.203V47.7808H273.156V29.7343ZM293.781 24.5781H278.312C276.894 24.5781 275.734 25.7383 275.734 27.1562V42.6246C275.734 44.0426 276.894 45.2027 278.312 45.2027H293.781C295.199 45.2027 296.359 44.0426 296.359 42.6246V27.1562C296.359 25.7383 295.199 24.5781 293.781 24.5781ZM293.781 42.6246H278.312V27.1562H293.781V42.6246ZM280.89 33.6014H291.203V36.1794H280.89V33.6014ZM280.89 37.4685H286.046V40.0465H280.89V37.4685ZM280.89 29.7343H291.203V32.3123H280.89V29.7343Z" fill="black"/>
<rect x="501.5" y="2.5" width="160" height="71" rx="18.5" fill="white"/>
<rect x="501.5" y="2.5" width="160" height="71" rx="18.5" stroke="#C2E8FF" stroke-width="3"/>
<rect x="501.5" y="2.5" width="160" height="71" rx="18.5" stroke="#0F9D58" stroke-width="3"/>
<path d="M566.12 31.06V32.54H562.32V45H560.5V32.54H556.68V31.06H566.12ZM578.08 34.04V45H576.26V43.38C575.914 43.94 575.427 44.38 574.8 44.7C574.187 45.0067 573.507 45.16 572.76 45.16C571.907 45.16 571.14 44.9867 570.46 44.64C569.78 44.28 569.24 43.7467 568.84 43.04C568.454 42.3333 568.26 41.4733 568.26 40.46V34.04H570.06V40.22C570.06 41.3 570.334 42.1333 570.88 42.72C571.427 43.2933 572.174 43.58 573.12 43.58C574.094 43.58 574.86 43.28 575.42 42.68C575.98 42.08 576.26 41.2067 576.26 40.06V34.04H578.08ZM585.673 33.86C586.62 33.86 587.447 34.0667 588.153 34.48C588.873 34.8933 589.407 35.4133 589.753 36.04V34.04H591.593V45.24C591.593 46.24 591.38 47.1267 590.953 47.9C590.527 48.6867 589.913 49.3 589.113 49.74C588.327 50.18 587.407 50.4 586.353 50.4C584.913 50.4 583.713 50.06 582.753 49.38C581.793 48.7 581.227 47.7733 581.053 46.6H582.853C583.053 47.2667 583.467 47.8 584.093 48.2C584.72 48.6133 585.473 48.82 586.353 48.82C587.353 48.82 588.167 48.5067 588.793 47.88C589.433 47.2533 589.753 46.3733 589.753 45.24V42.94C589.393 43.58 588.86 44.1133 588.153 44.54C587.447 44.9667 586.62 45.18 585.673 45.18C584.7 45.18 583.813 44.94 583.013 44.46C582.227 43.98 581.607 43.3067 581.153 42.44C580.7 41.5733 580.473 40.5867 580.473 39.48C580.473 38.36 580.7 37.38 581.153 36.54C581.607 35.6867 582.227 35.0267 583.013 34.56C583.813 34.0933 584.7 33.86 585.673 33.86ZM589.753 39.5C589.753 38.6733 589.587 37.9533 589.253 37.34C588.92 36.7267 588.467 36.26 587.893 35.94C587.333 35.6067 586.713 35.44 586.033 35.44C585.353 35.44 584.733 35.6 584.173 35.92C583.613 36.24 583.167 36.7067 582.833 37.32C582.5 37.9333 582.333 38.6533 582.333 39.48C582.333 40.32 582.5 41.0533 582.833 41.68C583.167 42.2933 583.613 42.7667 584.173 43.1C584.733 43.42 585.353 43.58 586.033 43.58C586.713 43.58 587.333 43.42 587.893 43.1C588.467 42.7667 588.92 42.2933 589.253 41.68C589.587 41.0533 589.753 40.3267 589.753 39.5ZM593.989 39.48C593.989 38.36 594.216 37.38 594.669 36.54C595.122 35.6867 595.742 35.0267 596.529 34.56C597.329 34.0933 598.216 33.86 599.189 33.86C600.149 33.86 600.982 34.0667 601.689 34.48C602.396 34.8933 602.922 35.4133 603.269 36.04V34.04H605.109V45H603.269V42.96C602.909 43.6 602.369 44.1333 601.649 44.56C600.942 44.9733 600.116 45.18 599.169 45.18C598.196 45.18 597.316 44.94 596.529 44.46C595.742 43.98 595.122 43.3067 594.669 42.44C594.216 41.5733 593.989 40.5867 593.989 39.48ZM603.269 39.5C603.269 38.6733 603.102 37.9533 602.769 37.34C602.436 36.7267 601.982 36.26 601.409 35.94C600.849 35.6067 600.229 35.44 599.549 35.44C598.869 35.44 598.249 35.6 597.689 35.92C597.129 36.24 596.682 36.7067 596.349 37.32C596.016 37.9333 595.849 38.6533 595.849 39.48C595.849 40.32 596.016 41.0533 596.349 41.68C596.682 42.2933 597.129 42.7667 597.689 43.1C598.249 43.42 598.869 43.58 599.549 43.58C600.229 43.58 600.849 43.42 601.409 43.1C601.982 42.7667 602.436 42.2933 602.769 41.68C603.102 41.0533 603.269 40.3267 603.269 39.5ZM612.065 45.18C611.225 45.18 610.471 45.04 609.805 44.76C609.138 44.4667 608.611 44.0667 608.225 43.56C607.838 43.04 607.625 42.4467 607.585 41.78H609.465C609.518 42.3267 609.771 42.7733 610.225 43.12C610.691 43.4667 611.298 43.64 612.045 43.64C612.738 43.64 613.285 43.4867 613.685 43.18C614.085 42.8733 614.285 42.4867 614.285 42.02C614.285 41.54 614.071 41.1867 613.645 40.96C613.218 40.72 612.558 40.4867 611.665 40.26C610.851 40.0467 610.185 39.8333 609.665 39.62C609.158 39.3933 608.718 39.0667 608.345 38.64C607.985 38.2 607.805 37.6267 607.805 36.92C607.805 36.36 607.971 35.8467 608.305 35.38C608.638 34.9133 609.111 34.5467 609.725 34.28C610.338 34 611.038 33.86 611.825 33.86C613.038 33.86 614.018 34.1667 614.765 34.78C615.511 35.3933 615.911 36.2333 615.965 37.3H614.145C614.105 36.7267 613.871 36.2667 613.445 35.92C613.031 35.5733 612.471 35.4 611.765 35.4C611.111 35.4 610.591 35.54 610.205 35.82C609.818 36.1 609.625 36.4667 609.625 36.92C609.625 37.28 609.738 37.58 609.965 37.82C610.205 38.0467 610.498 38.2333 610.845 38.38C611.205 38.5133 611.698 38.6667 612.325 38.84C613.111 39.0533 613.751 39.2667 614.245 39.48C614.738 39.68 615.158 39.9867 615.505 40.4C615.865 40.8133 616.051 41.3533 616.065 42.02C616.065 42.62 615.898 43.16 615.565 43.64C615.231 44.12 614.758 44.5 614.145 44.78C613.545 45.0467 612.851 45.18 612.065 45.18ZM623.626 34.18C623.719 32.9533 624.192 31.9933 625.046 31.3C625.899 30.6067 627.006 30.26 628.366 30.26C629.272 30.26 630.052 30.4267 630.706 30.76C631.372 31.08 631.872 31.52 632.206 32.08C632.552 32.64 632.726 33.2733 632.726 33.98C632.726 34.8067 632.486 35.52 632.006 36.12C631.539 36.72 630.926 37.1067 630.166 37.28V37.38C631.032 37.5933 631.719 38.0133 632.226 38.64C632.732 39.2667 632.986 40.0867 632.986 41.1C632.986 41.86 632.812 42.5467 632.466 43.16C632.119 43.76 631.599 44.2333 630.906 44.58C630.212 44.9267 629.379 45.1 628.406 45.1C626.992 45.1 625.832 44.7333 624.926 44C624.019 43.2533 623.512 42.2 623.406 40.84H625.166C625.259 41.64 625.586 42.2933 626.146 42.8C626.706 43.3067 627.452 43.56 628.386 43.56C629.319 43.56 630.026 43.32 630.506 42.84C630.999 42.3467 631.246 41.7133 631.246 40.94C631.246 39.94 630.912 39.22 630.246 38.78C629.579 38.34 628.572 38.12 627.226 38.12H626.766V36.6H627.246C628.472 36.5867 629.399 36.3867 630.026 36C630.652 35.6 630.966 34.9867 630.966 34.16C630.966 33.4533 630.732 32.8867 630.266 32.46C629.812 32.0333 629.159 31.82 628.306 31.82C627.479 31.82 626.812 32.0333 626.306 32.46C625.799 32.8867 625.499 33.46 625.406 34.18H623.626Z" fill="black"/>
<path d="M523.156 29.7343H520.578V47.7808C520.578 49.1987 521.738 50.3588 523.156 50.3588H541.203V47.7808H523.156V29.7343ZM543.781 24.5781H528.312C526.894 24.5781 525.734 25.7383 525.734 27.1562V42.6246C525.734 44.0426 526.894 45.2027 528.312 45.2027H543.781C545.199 45.2027 546.359 44.0426 546.359 42.6246V27.1562C546.359 25.7383 545.199 24.5781 543.781 24.5781ZM543.781 42.6246H528.312V27.1562H543.781V42.6246ZM530.89 33.6014H541.203V36.1794H530.89V33.6014ZM530.89 37.4685H536.046V40.0465H530.89V37.4685ZM530.89 29.7343H541.203V32.3123H530.89V29.7343Z" fill="black"/>
<rect x="751.5" y="1.5" width="160" height="71" rx="18.5" fill="white"/>
<rect x="751.5" y="1.5" width="160" height="71" rx="18.5" stroke="#C2E8FF" stroke-width="3"/>
<rect x="751.5" y="1.5" width="160" height="71" rx="18.5" stroke="#0F9D58" stroke-width="3"/>
<path d="M816.12 30.06V31.54H812.32V44H810.5V31.54H806.68V30.06H816.12ZM828.08 33.04V44H826.26V42.38C825.914 42.94 825.427 43.38 824.8 43.7C824.187 44.0067 823.507 44.16 822.76 44.16C821.907 44.16 821.14 43.9867 820.46 43.64C819.78 43.28 819.24 42.7467 818.84 42.04C818.454 41.3333 818.26 40.4733 818.26 39.46V33.04H820.06V39.22C820.06 40.3 820.334 41.1333 820.88 41.72C821.427 42.2933 822.174 42.58 823.12 42.58C824.094 42.58 824.86 42.28 825.42 41.68C825.98 41.08 826.26 40.2067 826.26 39.06V33.04H828.08ZM835.673 32.86C836.62 32.86 837.447 33.0667 838.153 33.48C838.873 33.8933 839.407 34.4133 839.753 35.04V33.04H841.593V44.24C841.593 45.24 841.38 46.1267 840.953 46.9C840.527 47.6867 839.913 48.3 839.113 48.74C838.327 49.18 837.407 49.4 836.353 49.4C834.913 49.4 833.713 49.06 832.753 48.38C831.793 47.7 831.227 46.7733 831.053 45.6H832.853C833.053 46.2667 833.467 46.8 834.093 47.2C834.72 47.6133 835.473 47.82 836.353 47.82C837.353 47.82 838.167 47.5067 838.793 46.88C839.433 46.2533 839.753 45.3733 839.753 44.24V41.94C839.393 42.58 838.86 43.1133 838.153 43.54C837.447 43.9667 836.62 44.18 835.673 44.18C834.7 44.18 833.813 43.94 833.013 43.46C832.227 42.98 831.607 42.3067 831.153 41.44C830.7 40.5733 830.473 39.5867 830.473 38.48C830.473 37.36 830.7 36.38 831.153 35.54C831.607 34.6867 832.227 34.0267 833.013 33.56C833.813 33.0933 834.7 32.86 835.673 32.86ZM839.753 38.5C839.753 37.6733 839.587 36.9533 839.253 36.34C838.92 35.7267 838.467 35.26 837.893 34.94C837.333 34.6067 836.713 34.44 836.033 34.44C835.353 34.44 834.733 34.6 834.173 34.92C833.613 35.24 833.167 35.7067 832.833 36.32C832.5 36.9333 832.333 37.6533 832.333 38.48C832.333 39.32 832.5 40.0533 832.833 40.68C833.167 41.2933 833.613 41.7667 834.173 42.1C834.733 42.42 835.353 42.58 836.033 42.58C836.713 42.58 837.333 42.42 837.893 42.1C838.467 41.7667 838.92 41.2933 839.253 40.68C839.587 40.0533 839.753 39.3267 839.753 38.5ZM843.989 38.48C843.989 37.36 844.216 36.38 844.669 35.54C845.122 34.6867 845.742 34.0267 846.529 33.56C847.329 33.0933 848.216 32.86 849.189 32.86C850.149 32.86 850.982 33.0667 851.689 33.48C852.396 33.8933 852.922 34.4133 853.269 35.04V33.04H855.109V44H853.269V41.96C852.909 42.6 852.369 43.1333 851.649 43.56C850.942 43.9733 850.116 44.18 849.169 44.18C848.196 44.18 847.316 43.94 846.529 43.46C845.742 42.98 845.122 42.3067 844.669 41.44C844.216 40.5733 843.989 39.5867 843.989 38.48ZM853.269 38.5C853.269 37.6733 853.102 36.9533 852.769 36.34C852.436 35.7267 851.982 35.26 851.409 34.94C850.849 34.6067 850.229 34.44 849.549 34.44C848.869 34.44 848.249 34.6 847.689 34.92C847.129 35.24 846.682 35.7067 846.349 36.32C846.016 36.9333 845.849 37.6533 845.849 38.48C845.849 39.32 846.016 40.0533 846.349 40.68C846.682 41.2933 847.129 41.7667 847.689 42.1C848.249 42.42 848.869 42.58 849.549 42.58C850.229 42.58 850.849 42.42 851.409 42.1C851.982 41.7667 852.436 41.2933 852.769 40.68C853.102 40.0533 853.269 39.3267 853.269 38.5ZM862.065 44.18C861.225 44.18 860.471 44.04 859.805 43.76C859.138 43.4667 858.611 43.0667 858.225 42.56C857.838 42.04 857.625 41.4467 857.585 40.78H859.465C859.518 41.3267 859.771 41.7733 860.225 42.12C860.691 42.4667 861.298 42.64 862.045 42.64C862.738 42.64 863.285 42.4867 863.685 42.18C864.085 41.8733 864.285 41.4867 864.285 41.02C864.285 40.54 864.071 40.1867 863.645 39.96C863.218 39.72 862.558 39.4867 861.665 39.26C860.851 39.0467 860.185 38.8333 859.665 38.62C859.158 38.3933 858.718 38.0667 858.345 37.64C857.985 37.2 857.805 36.6267 857.805 35.92C857.805 35.36 857.971 34.8467 858.305 34.38C858.638 33.9133 859.111 33.5467 859.725 33.28C860.338 33 861.038 32.86 861.825 32.86C863.038 32.86 864.018 33.1667 864.765 33.78C865.511 34.3933 865.911 35.2333 865.965 36.3H864.145C864.105 35.7267 863.871 35.2667 863.445 34.92C863.031 34.5733 862.471 34.4 861.765 34.4C861.111 34.4 860.591 34.54 860.205 34.82C859.818 35.1 859.625 35.4667 859.625 35.92C859.625 36.28 859.738 36.58 859.965 36.82C860.205 37.0467 860.498 37.2333 860.845 37.38C861.205 37.5133 861.698 37.6667 862.325 37.84C863.111 38.0533 863.751 38.2667 864.245 38.48C864.738 38.68 865.158 38.9867 865.505 39.4C865.865 39.8133 866.051 40.3533 866.065 41.02C866.065 41.62 865.898 42.16 865.565 42.64C865.231 43.12 864.758 43.5 864.145 43.78C863.545 44.0467 862.851 44.18 862.065 44.18ZM873.226 40.78V39.4L880.246 29.68H882.426V39.2H884.426V40.78H882.426V44H880.626V40.78H873.226ZM880.706 31.58L875.326 39.2H880.706V31.58Z" fill="black"/>
<path d="M773.156 28.7343H770.578V46.7808C770.578 48.1987 771.738 49.3588 773.156 49.3588H791.203V46.7808H773.156V28.7343ZM793.781 23.5781H778.312C776.894 23.5781 775.734 24.7383 775.734 26.1562V41.6246C775.734 43.0426 776.894 44.2027 778.312 44.2027H793.781C795.199 44.2027 796.359 43.0426 796.359 41.6246V26.1562C796.359 24.7383 795.199 23.5781 793.781 23.5781ZM793.781 41.6246H778.312V26.1562H793.781V41.6246ZM780.89 32.6014H791.203V35.1794H780.89V32.6014ZM780.89 36.4685H786.046V39.0465H780.89V36.4685ZM780.89 28.7343H791.203V31.3123H780.89V28.7343Z" fill="black"/>
</svg>
