<svg width="406" height="306" viewBox="0 0 406 306" fill="none" xmlns="http://www.w3.org/2000/svg">
<path opacity="0.24" d="M38.0463 174.559C42.7183 165.709 50.3563 157.712 50.6513 147.706C50.8586 140.387 47.0157 133.674 44.2013 126.905C29.8502 92.4384 44.7115 48.4604 76.9935 29.7163C94.6134 19.4871 115.494 16.5691 135.833 15.421C158.915 14.1135 182.068 14.8151 205.029 17.5178C218.487 19.1124 232.575 21.6876 242.988 30.3541C259.308 43.9079 261.612 67.5314 267.815 87.8302C278.714 123.485 305.622 153.901 339.674 169.073C345.837 171.816 352.367 174.176 357.35 178.72C368.281 188.67 368.392 206.577 361.655 219.733C354.918 232.888 342.903 242.399 331.223 251.488L294.978 279.752C287.643 285.468 280.133 291.289 271.339 294.31C242.039 304.388 202.294 292.54 171.878 291.193C152.241 290.316 131.424 292.261 112.233 287.143C69.7542 275.797 13.1073 221.861 38.0463 174.559Z" fill="#C2E8FF"/>
<path opacity="0.24" d="M223.135 183.943H314.751C319.419 183.943 323.202 180.159 323.202 175.491V125.845C323.202 121.177 319.419 117.393 314.751 117.393L223.135 117.393C218.468 117.393 214.684 121.177 214.684 125.845V175.491C214.684 180.159 218.468 183.943 223.135 183.943Z" fill="#C2E8FF"/>
<path opacity="0.24" d="M61.7575 201.22H132.421C136.049 201.22 138.99 198.278 138.99 194.65V155.711C138.99 152.082 136.049 149.141 132.421 149.141H61.7575C58.1292 149.141 55.1879 152.082 55.1879 155.711V194.65C55.1879 198.278 58.1292 201.22 61.7575 201.22Z" fill="#C2E8FF"/>
<path opacity="0.63" d="M384.936 139.661H257.371C251.785 139.655 246.43 137.434 242.48 133.485C238.53 129.537 236.307 124.183 236.298 118.597V28.8074C236.305 23.2206 238.527 17.8645 242.477 13.9141C246.428 9.96366 251.784 7.74153 257.371 7.7352H384.936C390.521 7.74364 395.875 9.9667 399.824 13.9169C403.773 17.8671 405.994 23.222 406 28.8074V118.597C405.994 124.182 403.772 129.536 399.823 133.485C395.874 137.434 390.52 139.655 384.936 139.661ZM257.371 10.8845C252.618 10.8887 248.062 12.7783 244.702 16.1386C241.342 19.4989 239.452 24.0552 239.448 28.8074V118.597C239.454 123.348 241.345 127.902 244.705 131.261C248.065 134.619 252.62 136.508 257.371 136.512H384.936C389.685 136.506 394.238 134.616 397.597 131.258C400.955 127.9 402.844 123.347 402.851 118.597V28.8074C402.846 24.0566 400.958 19.5015 397.599 16.1414C394.241 12.7814 389.687 10.8908 384.936 10.8845H257.371Z" fill="#C2E8FF"/>
<path opacity="0.63" d="M159.496 66.1919H107.753C105.239 66.1898 102.829 65.1904 101.052 63.4131C99.2745 61.6357 98.2751 59.2258 98.2729 56.7122V20.3004C98.2729 17.7855 99.2714 15.3735 101.049 13.5944C102.827 11.8154 105.238 10.8148 107.753 10.8127H159.496C162.011 10.8148 164.422 11.8154 166.2 13.5944C167.977 15.3735 168.976 17.7855 168.976 20.3004V56.7122C168.974 59.2258 167.974 61.6357 166.197 63.4131C164.42 65.1904 162.01 66.1898 159.496 66.1919ZM107.753 14.0018C106.078 14.0144 104.475 14.6853 103.29 15.8698C102.106 17.0543 101.435 18.6572 101.422 20.3323V56.7441C101.435 58.4192 102.106 60.0221 103.29 61.2066C104.475 62.3911 106.078 63.062 107.753 63.0746H159.496C161.171 63.062 162.774 62.3911 163.959 61.2066C165.143 60.0221 165.814 58.4192 165.827 56.7441V20.3004C165.806 18.6309 165.131 17.0361 163.948 15.8584C162.764 14.6808 161.166 14.0142 159.496 14.0018H107.753Z" fill="#C2E8FF"/>
<path d="M178.001 200.893C178.024 201.803 178.3 202.69 178.798 203.452C179.25 203.976 179.842 204.36 180.505 204.56C183.55 205.637 186.883 204.393 189.873 203.157C191.203 202.734 192.401 201.973 193.349 200.949C194.149 199.69 194.557 198.222 194.521 196.731C194.825 191.916 194.576 187.082 193.779 182.324C193.665 181.075 193.246 179.873 192.56 178.824C191.085 176.871 188.31 176.608 185.862 176.512C179.699 176.281 177.89 175.491 177.539 181.949C177.183 188.266 177.337 194.601 178.001 200.893Z" fill="url(#paint0_linear_206_84)"/>
<path d="M160.254 154.818C161.736 158.232 163.791 161.368 166.329 164.09C168.949 166.82 172.137 168.939 175.667 170.299C179.197 171.658 182.984 172.225 186.757 171.958C190.531 171.691 194.2 170.597 197.503 168.754C200.807 166.91 203.665 164.363 205.874 161.292C209.701 155.958 211.343 149.38 212.492 142.914C213.488 137.254 214.166 131.362 212.691 125.805C210.754 118.541 205.196 112.554 198.499 109.157C191.802 105.761 184.068 104.772 176.574 105.307C171.886 105.649 167.15 106.598 163.076 108.926C155.024 113.503 154.657 119.849 155.023 128.125C155.462 137.198 156.483 146.454 160.254 154.818Z" fill="url(#paint1_linear_206_84)"/>
<path d="M177.714 85.0556C175.498 82.6638 172.875 80.2241 169.606 79.8334C166.337 79.4427 162.606 82.1455 163.228 85.4144C158.165 82.9827 152.233 80.9815 147.051 83.1421C142.698 84.944 139.875 89.5204 139.269 94.1606C138.663 98.8007 140.066 103.584 142.267 107.714C143.494 110.144 145.15 112.331 147.154 114.172C151.826 118.286 158.316 119.434 164.519 120.16C175.043 121.388 185.918 121.834 196.004 118.565C199.049 117.585 202.852 116.437 205.069 118.749C206.719 120.463 207.214 123.859 209.597 123.851C211.527 123.851 212.404 121.46 212.587 119.522C213.016 114.926 212.55 110.291 211.216 105.873C208.896 98.1948 203.371 92.3188 194.959 92.3826C187.17 92.4783 183.096 90.9395 177.714 85.0556Z" fill="#606161"/>
<path d="M173.887 127.208H164.886C161.702 127.208 159.122 129.789 159.122 132.972V135.619C159.122 138.803 161.702 141.384 164.886 141.384H173.887C177.071 141.384 179.652 138.803 179.652 135.619V132.972C179.652 129.789 177.071 127.208 173.887 127.208Z" stroke="white" stroke-width="3.14926" stroke-miterlimit="10"/>
<path d="M201.808 127.208H192.807C189.623 127.208 187.042 129.789 187.042 132.972V135.619C187.042 138.803 189.623 141.384 192.807 141.384H201.808C204.992 141.384 207.572 138.803 207.572 135.619V132.972C207.572 129.789 204.992 127.208 201.808 127.208Z" stroke="white" stroke-width="3.14926" stroke-miterlimit="10"/>
<path d="M189.291 132.821H177.85V134.519H189.291V132.821Z" fill="white"/>
<path d="M160.453 131.051H151.149V133.706H160.453V131.051Z" fill="white"/>
<path d="M216.717 132.087H206.376V133.857H216.717V132.087Z" fill="white"/>
<path d="M157.12 155.743C156.991 158.311 157.168 160.886 157.647 163.413C158.938 168.993 163.228 173.61 168.314 176.233C169.835 176.918 171.313 177.696 172.739 178.561C174.19 179.557 175.394 180.897 176.853 181.894C178.608 183.057 180.653 183.708 182.758 183.771C184.862 183.835 186.943 183.308 188.764 182.252C189.873 181.591 190.973 180.698 192.265 180.761C193.253 180.761 194.114 181.407 195.047 181.726C197.176 182.452 199.504 181.662 201.545 180.714C203.586 179.765 205.476 178.633 206.329 176.687C206.895 175.428 206.919 174 207.19 172.645C207.875 169.169 210.116 166.219 211.495 162.95C214.365 156.181 213.408 148.471 212.404 141.192L209.087 146.686C207.971 148.535 206.695 150.505 204.67 151.238C201.999 152.187 199.161 150.64 196.578 149.452C192.498 147.612 188.092 146.605 183.619 146.488C179.145 146.372 174.693 147.149 170.523 148.774C168.801 149.46 166.975 150.305 165.165 149.875C163.012 149.364 159.863 143.704 158.165 144.198C156.092 144.82 157.136 154.005 157.12 155.743Z" fill="#606161"/>
<path d="M178.033 193.598C199.623 190.52 222.561 201.467 233.755 220.187C237.486 226.438 239.99 233.398 244.12 239.401C248.481 245.78 254.484 250.795 259.499 256.647C263.546 261.377 266.939 266.63 269.585 272.265C271.977 277.4 273.675 283.81 270.462 288.49C267.512 292.795 261.692 293.832 256.47 294.223C246.105 295.02 235.653 294.757 225.24 294.494L122.933 291.966C118.372 291.855 113.7 291.719 109.467 290.021C105.233 288.323 101.494 284.687 100.952 280.159C100.155 273.525 106.094 268.327 110.519 263.312C123.379 248.674 126.258 227.378 138.647 212.342C143.296 206.777 149.086 202.277 155.625 199.145C162.165 196.012 169.301 194.322 176.55 194.188" fill="#C2E8FF"/>
<path d="M178.033 193.598C199.623 190.52 222.561 201.467 233.755 220.187C237.486 226.438 239.99 233.398 244.12 239.401C248.481 245.78 254.484 250.795 259.499 256.647C263.546 261.377 266.939 266.63 269.585 272.265C271.977 277.4 273.675 283.81 270.462 288.49C267.512 292.795 261.692 293.832 256.47 294.223C246.105 295.02 235.653 294.757 225.24 294.494L122.933 291.966C118.372 291.855 113.7 291.719 109.467 290.021C105.233 288.323 101.494 284.687 100.952 280.159C100.155 273.525 106.094 268.327 110.519 263.312C123.379 248.674 126.258 227.378 138.647 212.342C143.296 206.777 149.086 202.277 155.625 199.145C162.165 196.012 169.301 194.322 176.55 194.188" fill="url(#paint2_linear_206_84)"/>
<path d="M235.023 286.848H142.434V293.051H235.023V286.848Z" fill="#C2E8FF"/>
<path d="M235.023 286.848H142.434V293.051H235.023V286.848Z" fill="url(#paint3_linear_206_84)"/>
<path d="M246.081 184.365H133.314C124.238 184.365 116.882 191.722 116.882 200.797V255.945C116.882 265.02 124.238 272.377 133.314 272.377H246.081C255.156 272.377 262.513 265.02 262.513 255.945V200.797C262.513 191.722 255.156 184.365 246.081 184.365Z" fill="#C2E8FF"/>
<path d="M246.081 187.02H133.314C124.238 187.02 116.882 194.377 116.882 203.452V258.6C116.882 267.675 124.238 275.032 133.314 275.032H246.081C255.156 275.032 262.513 267.675 262.513 258.6V203.452C262.513 194.377 255.156 187.02 246.081 187.02Z" fill="url(#paint4_linear_206_84)"/>
<path opacity="0.26" d="M168.131 271.325L183.63 239.888H197.814L199.807 271.771L168.131 271.325Z" fill="url(#paint5_linear_206_84)"/>
<path d="M204.902 293.051H177.132L183.63 239.888H197.814L204.902 293.051Z" fill="#C2E8FF"/>
<path d="M206.225 293.051H178.464L184.961 239.888H199.137L206.225 293.051Z" fill="url(#paint6_linear_206_84)"/>
<path d="M384.936 7.65546H257.347C246.581 7.65546 237.853 16.383 237.853 27.149V116.931C237.853 127.697 246.581 136.424 257.347 136.424H384.936C395.702 136.424 404.429 127.697 404.429 116.931V27.149C404.429 16.383 395.702 7.65546 384.936 7.65546Z" fill="white"/>
<path opacity="0.63" d="M99.4131 167.311H14.5345C10.6802 167.305 6.98581 165.77 4.26122 163.044C1.53662 160.318 0.00421629 156.623 0 152.769V93.0444C0.00421629 89.1902 1.53662 85.4949 4.26122 82.7688C6.98581 80.0427 10.6802 78.5083 14.5345 78.502H99.4131C103.267 78.5083 106.962 80.0427 109.686 82.7688C112.411 85.4949 113.943 89.1902 113.948 93.0444V152.769C113.943 156.623 112.411 160.318 109.686 163.044C106.962 165.77 103.267 167.305 99.4131 167.311ZM14.5345 81.6512C11.5141 81.6554 8.61865 82.8571 6.48293 84.9929C4.34721 87.1286 3.14551 90.024 3.14129 93.0444V152.769C3.14551 155.789 4.34721 158.685 6.48293 160.82C8.61865 162.956 11.5141 164.158 14.5345 164.162H99.4131C102.433 164.158 105.329 162.956 107.465 160.82C109.6 158.685 110.802 155.789 110.806 152.769V93.0444C110.802 90.024 109.6 87.1286 107.465 84.9929C105.329 82.8571 102.433 81.6554 99.4131 81.6512H14.5345Z" fill="#C2E8FF"/>
<path d="M99.4131 77.9438H14.5345C7.37477 77.9438 1.57068 83.7479 1.57068 90.9077V150.64C1.57068 157.8 7.37477 163.604 14.5345 163.604H99.4131C106.573 163.604 112.377 157.8 112.377 150.64V90.9077C112.377 83.7479 106.573 77.9438 99.4131 77.9438Z" fill="white"/>
<path d="M159.281 10.9562H107.529C103.166 10.9562 99.6284 14.4936 99.6284 18.8573V55.2771C99.6284 59.6408 103.166 63.1782 107.529 63.1782H159.281C163.645 63.1782 167.182 59.6408 167.182 55.2771V18.8573C167.182 14.4936 163.645 10.9562 159.281 10.9562Z" fill="white"/>
<path d="M108.239 37.6173L125.285 28.8472V31.3826L110.934 38.5581V38.6379L125.285 45.8134V48.3567L108.239 39.5866V37.6173Z" fill="#C2E8FF"/>
<path d="M127.661 49.8795L137.914 23.2343H140.409L130.124 49.8795H127.661Z" fill="#C2E8FF"/>
<path d="M159.759 39.7062L142.729 48.4763V45.8931L157.2 38.7176V38.598L142.729 31.4224V28.8392L159.759 37.6093V39.7062Z" fill="#C2E8FF"/>
<path d="M167.477 275.295C163.826 274.562 160.062 275.231 156.315 275.343C152.743 275.447 149.14 275.024 145.608 275.343C142.076 275.662 138.376 276.937 136.096 279.656C134.627 281.429 133.856 283.677 133.927 285.979C133.923 286.839 134.143 287.685 134.565 288.434C135.538 289.989 137.563 290.459 139.349 290.722C139.716 290.786 140.091 290.786 140.457 290.722C141.773 290.435 142.235 288.745 143.375 288.044C144.149 287.664 145.015 287.515 145.871 287.613C155.215 287.804 164.562 287.767 173.911 287.501C174.553 287.538 175.193 287.406 175.769 287.119C178.32 285.524 175.37 281.952 174.453 280.246C173.724 278.96 172.721 277.851 171.516 276.995C170.31 276.139 168.931 275.559 167.477 275.295Z" fill="url(#paint7_linear_206_84)"/>
<path d="M206.369 280.087C205.085 281.849 204.383 284.647 206.113 285.971C207.668 287.167 209.948 286.178 211.399 284.862C212.85 283.547 214.174 281.841 216.103 281.466C216.39 283.14 216.773 284.974 218.144 285.971C220.225 287.486 223.096 286.178 225.663 286.202C227.975 286.202 230.614 287.294 232.4 285.819C233.325 285.022 234.377 283.611 235.334 284.344C235.612 284.608 235.803 284.95 235.884 285.325C236.763 288.019 238.053 290.561 239.711 292.859C240.875 293.314 241.752 291.735 241.975 290.467C242.596 287.011 242.733 283.485 242.382 279.991C242.19 278.046 241.776 276.005 240.389 274.601C238.579 272.792 235.717 272.712 233.157 272.752L222.888 272.903C216.781 273.023 210.172 274.888 206.369 280.087Z" fill="url(#paint8_linear_206_84)"/>
<path opacity="0.59" d="M200.907 216.169C200.904 218.181 200.305 220.147 199.185 221.819C198.065 223.491 196.474 224.793 194.615 225.562C192.755 226.331 190.709 226.531 188.736 226.138C186.762 225.744 184.95 224.775 183.527 223.352C182.104 221.929 181.134 220.116 180.741 218.143C180.348 216.169 180.548 214.124 181.317 212.264C182.085 210.404 183.388 208.814 185.059 207.694C186.731 206.574 188.698 205.975 190.71 205.971C191.246 205.962 191.781 206.015 192.304 206.131C192.37 208.491 193.264 210.752 194.83 212.519C196.395 214.285 198.533 215.445 200.867 215.794C200.897 215.917 200.91 216.043 200.907 216.169Z" fill="#C2E8FF"/>
<g opacity="0.52">
<path d="M301.66 24.7173H259.085V27.8426H301.66V24.7173Z" fill="#C2E8FF"/>
<path d="M285.068 30.7607H259.085V33.6947H285.068V30.7607Z" fill="#C2E8FF"/>
<path d="M377.322 30.7607H295.552V33.7106H377.322V30.7607Z" fill="#C2E8FF"/>
<path d="M308.333 36.812H272.599V39.9055H308.333V36.812Z" fill="#C2E8FF"/>
<path d="M326.647 42.8555H284.072V45.9808H326.647V42.8555Z" fill="#C2E8FF"/>
<path d="M365.107 42.8555H329.421V46.3236H365.107V42.8555Z" fill="#C2E8FF"/>
<path d="M316.88 48.8989H284.008V51.8329H316.88V48.8989Z" fill="#C2E8FF"/>
<path d="M387.87 48.8989H320.037V52.1438H387.87V48.8989Z" fill="#C2E8FF"/>
<path d="M301.66 57.071H259.085V60.1963H301.66V57.071Z" fill="#C2E8FF"/>
<path d="M285.068 63.1144H259.085V66.0484H285.068V63.1144Z" fill="#C2E8FF"/>
<path d="M377.322 63.1144H295.552V66.0643H377.322V63.1144Z" fill="#C2E8FF"/>
<path d="M308.333 69.1578H272.599V72.2512H308.333V69.1578Z" fill="#C2E8FF"/>
<path d="M326.647 75.2092H284.072V78.3345H326.647V75.2092Z" fill="#C2E8FF"/>
<path d="M365.107 75.2092H329.421V78.6773H365.107V75.2092Z" fill="#C2E8FF"/>
<path d="M316.88 81.2526H284.008V84.1866H316.88V81.2526Z" fill="#C2E8FF"/>
<path d="M387.87 81.2526H320.037V84.4975H387.87V81.2526Z" fill="#C2E8FF"/>
<path d="M301.66 89.4327H259.085V92.558H301.66V89.4327Z" fill="#C2E8FF"/>
<path d="M285.068 95.4681H259.085V98.4021H285.068V95.4681Z" fill="#C2E8FF"/>
<path d="M377.322 95.4681H295.552V98.4181H377.322V95.4681Z" fill="#C2E8FF"/>
<path d="M308.333 101.512H272.599V104.605H308.333V101.512Z" fill="#C2E8FF"/>
<path d="M326.647 107.555H284.072V110.68H326.647V107.555Z" fill="#C2E8FF"/>
<path d="M365.107 107.555H329.421V111.023H365.107V107.555Z" fill="#C2E8FF"/>
<path d="M316.88 113.614H284.008V116.548H316.88V113.614Z" fill="#C2E8FF"/>
<path d="M387.87 113.614H320.037V116.859H387.87V113.614Z" fill="#C2E8FF"/>
</g>
<g opacity="0.52">
<path d="M42.4154 91.3143H14.7577V93.3394H42.4154V91.3143Z" fill="#C2E8FF"/>
<path d="M31.6441 95.2369H14.7577V97.1424H31.6441V95.2369Z" fill="#C2E8FF"/>
<path d="M91.5758 95.2369H38.4529V97.1504H91.5758V95.2369Z" fill="#C2E8FF"/>
<path d="M46.7526 99.1755H23.5358V101.185H46.7526V99.1755Z" fill="#C2E8FF"/>
<path d="M58.6481 103.098H30.9904V105.123H58.6481V103.098Z" fill="#C2E8FF"/>
<path d="M83.6349 103.098H60.45V105.354H83.6349V103.098Z" fill="#C2E8FF"/>
<path d="M52.3096 107.029H30.9504V108.934H52.3096V107.029Z" fill="#C2E8FF"/>
<path d="M98.4245 107.029H54.3507V109.141H98.4245V107.029Z" fill="#C2E8FF"/>
<path d="M42.4154 112.339H14.7577V114.364H42.4154V112.339Z" fill="#C2E8FF"/>
<path d="M31.6441 116.261H14.7577V118.167H31.6441V116.261Z" fill="#C2E8FF"/>
<path d="M91.5758 116.261H38.4529V118.175H91.5758V116.261Z" fill="#C2E8FF"/>
<path d="M46.7526 120.192H23.5358V122.201H46.7526V120.192Z" fill="#C2E8FF"/>
<path d="M58.6481 124.122H30.9904V126.148H58.6481V124.122Z" fill="#C2E8FF"/>
<path d="M83.6349 124.122H60.45V126.379H83.6349V124.122Z" fill="#C2E8FF"/>
<path d="M52.3096 128.045H30.9504V129.951H52.3096V128.045Z" fill="#C2E8FF"/>
<path d="M98.4245 128.045H54.3507V130.158H98.4245V128.045Z" fill="#C2E8FF"/>
<path d="M42.4154 133.363H14.7577V135.388H42.4154V133.363Z" fill="#C2E8FF"/>
<path d="M31.6441 137.286H14.7577V139.191H31.6441V137.286Z" fill="#C2E8FF"/>
<path d="M91.5758 137.286H38.4529V139.199H91.5758V137.286Z" fill="#C2E8FF"/>
<path d="M46.7526 141.208H23.5358V143.217H46.7526V141.208Z" fill="#C2E8FF"/>
<path d="M58.6481 145.139H30.9904V147.164H58.6481V145.139Z" fill="#C2E8FF"/>
<path d="M83.6349 145.139H60.45V147.395H83.6349V145.139Z" fill="#C2E8FF"/>
<path d="M52.3096 149.069H30.9504V150.975H52.3096V149.069Z" fill="#C2E8FF"/>
<path d="M98.4245 149.069H54.3507V151.182H98.4245V149.069Z" fill="#C2E8FF"/>
</g>
<g opacity="0.61">
<path d="M269.521 207.51C269.776 206.147 270.047 204.783 270.319 203.42C270.462 202.623 270.598 201.881 270.749 201.028C272.025 201.244 273.268 201.443 274.504 201.682C274.586 201.713 274.674 201.727 274.761 201.723C274.849 201.718 274.935 201.696 275.013 201.657C275.092 201.618 275.161 201.564 275.218 201.497C275.274 201.429 275.316 201.351 275.341 201.267C275.9 200.183 276.521 199.131 277.175 198.078C277.233 198.017 277.277 197.945 277.305 197.866C277.334 197.787 277.346 197.703 277.34 197.62C277.335 197.536 277.313 197.454 277.275 197.38C277.237 197.305 277.184 197.239 277.119 197.185C276.322 196.237 275.525 195.256 274.64 194.243L279.982 189.755C280.779 190.735 281.624 191.684 282.413 192.665C282.459 192.747 282.521 192.819 282.596 192.876C282.672 192.933 282.758 192.973 282.85 192.994C282.942 193.015 283.037 193.016 283.129 192.998C283.222 192.98 283.309 192.942 283.386 192.888C284.459 192.415 285.561 192.013 286.687 191.684C287.205 191.533 287.325 191.325 287.317 190.839C287.317 189.619 287.317 188.399 287.317 187.132H294.285C294.285 188.383 294.285 189.619 294.285 190.855C294.285 191.349 294.412 191.533 294.915 191.652C296.039 191.987 297.142 192.392 298.215 192.864C298.293 192.918 298.381 192.954 298.473 192.971C298.566 192.988 298.661 192.985 298.752 192.963C298.843 192.94 298.929 192.898 299.002 192.84C299.076 192.782 299.137 192.708 299.18 192.625C299.977 191.66 300.775 190.719 301.612 189.723L306.946 194.204L304.211 197.48C304.952 198.844 305.646 200.151 306.388 201.427C306.467 201.57 306.818 201.642 307.025 201.61C308.269 201.419 309.513 201.188 310.836 200.957L312.048 207.813C310.749 208.044 309.489 208.26 308.237 208.507C308.03 208.547 307.727 208.738 307.695 208.905C307.448 210.356 307.249 211.816 307.017 213.354L310.701 215.491L307.217 221.526L303.509 219.398C302.313 220.354 301.157 221.263 300.017 222.212C299.955 222.295 299.913 222.392 299.895 222.495C299.877 222.597 299.883 222.703 299.914 222.802C300.328 224.038 300.783 225.258 301.245 226.533L294.699 228.925C294.293 227.817 293.854 226.733 293.511 225.616C293.495 225.481 293.449 225.351 293.377 225.235C293.306 225.119 293.21 225.019 293.096 224.944C292.983 224.868 292.854 224.818 292.719 224.796C292.585 224.775 292.447 224.783 292.316 224.819C291.187 224.895 290.055 224.895 288.927 224.819C288.851 224.801 288.772 224.798 288.695 224.812C288.617 224.825 288.544 224.855 288.479 224.898C288.414 224.942 288.358 224.998 288.316 225.064C288.274 225.13 288.246 225.204 288.233 225.282C287.819 226.478 287.372 227.673 286.91 228.917L280.356 226.525L281.823 222.475L278.132 219.366L274.393 221.518L270.901 215.483C272.057 214.813 273.141 214.175 274.241 213.562C274.317 213.533 274.386 213.489 274.444 213.433C274.502 213.377 274.549 213.31 274.581 213.235C274.613 213.161 274.629 213.081 274.63 213C274.631 212.919 274.615 212.839 274.584 212.764C274.329 211.64 274.122 210.5 273.978 209.36C273.906 208.802 273.779 208.563 273.181 208.459C271.969 208.323 270.789 208.06 269.577 207.845L269.521 207.51ZM290.857 199.195C289.096 199.168 287.367 199.664 285.889 200.619C284.41 201.575 283.248 202.947 282.549 204.563C281.85 206.179 281.645 207.966 281.961 209.698C282.277 211.43 283.1 213.029 284.324 214.294C285.549 215.559 287.121 216.432 288.842 216.804C290.563 217.176 292.356 217.029 293.993 216.382C295.631 215.736 297.04 214.618 298.043 213.171C299.045 211.724 299.596 210.012 299.627 208.252C299.654 205.891 298.748 203.614 297.106 201.918C295.463 200.222 293.217 199.243 290.857 199.195Z" fill="#C2E8FF"/>
<path d="M329.7 227.673L331.223 232.457C330.338 232.752 329.485 233.007 328.664 233.318C328.56 233.366 328.469 233.438 328.398 233.529C328.328 233.619 328.279 233.724 328.257 233.836C328.185 234.682 328.209 235.527 328.145 236.372C328.128 236.444 328.125 236.519 328.137 236.593C328.148 236.666 328.175 236.737 328.214 236.8C328.253 236.863 328.305 236.917 328.366 236.96C328.427 237.003 328.495 237.034 328.568 237.05C329.365 237.345 330.163 237.695 331.024 238.046C330.386 239.641 329.78 241.116 329.15 242.662C328.281 242.312 327.46 241.953 326.623 241.658C326.513 241.63 326.397 241.629 326.287 241.654C326.176 241.679 326.073 241.729 325.985 241.801C325.315 242.511 324.685 243.268 323.984 244.074L325.411 246.8L321.01 249.144C320.571 248.347 320.173 247.55 319.734 246.752C319.676 246.663 319.599 246.587 319.508 246.532C319.417 246.477 319.314 246.443 319.208 246.434C318.195 246.553 317.183 246.736 316.138 246.896L315.477 249.902L310.613 248.857L311.243 245.851C310.342 245.262 309.481 244.679 308.596 244.137C308.502 244.109 308.403 244.102 308.306 244.119C308.209 244.136 308.117 244.175 308.038 244.233C307.32 244.759 306.627 245.317 305.877 245.899L302.808 241.969C303.541 241.395 304.211 240.853 304.905 240.334C304.972 240.303 305.032 240.259 305.081 240.203C305.13 240.148 305.166 240.083 305.189 240.012C305.211 239.942 305.219 239.867 305.211 239.794C305.203 239.72 305.181 239.649 305.144 239.585C304.834 238.817 304.568 238.031 304.347 237.233C304.341 237.159 304.32 237.086 304.285 237.02C304.25 236.954 304.202 236.897 304.143 236.85C304.085 236.804 304.018 236.77 303.946 236.751C303.874 236.732 303.798 236.727 303.725 236.739C302.856 236.739 301.995 236.739 301.205 236.739V231.716H304.347C304.745 230.775 305.144 229.834 305.55 228.869C305.606 228.726 305.455 228.431 305.319 228.295C304.697 227.689 304.036 227.123 303.35 226.501L306.683 222.794L308.979 224.843C309.952 224.349 310.9 223.886 311.833 223.376C311.945 223.312 311.993 223.009 311.977 222.834C311.881 221.973 311.745 221.112 311.618 220.179L316.553 219.493C316.681 220.378 316.808 221.192 316.896 222.013C316.944 222.475 317.135 222.667 317.621 222.722C318.352 222.828 319.074 222.985 319.782 223.193C319.857 223.231 319.94 223.253 320.024 223.258C320.109 223.263 320.193 223.251 320.272 223.222C320.352 223.193 320.424 223.147 320.485 223.089C320.546 223.03 320.595 222.96 320.627 222.882C321.05 222.14 321.52 221.439 322.014 220.657L326.232 223.304L324.637 225.911C325.267 226.765 325.881 227.61 326.527 228.415C326.618 228.471 326.719 228.509 326.824 228.525C326.93 228.541 327.037 228.537 327.141 228.511C327.986 228.263 328.831 227.984 329.7 227.673ZM316.306 241.028C317.568 241.009 318.797 240.615 319.836 239.897C320.874 239.179 321.677 238.169 322.141 236.994C322.605 235.82 322.71 234.534 322.443 233.3C322.175 232.066 321.548 230.939 320.639 230.062C319.731 229.185 318.582 228.597 317.34 228.373C316.097 228.149 314.816 228.299 313.658 228.804C312.501 229.309 311.519 230.147 310.838 231.21C310.157 232.273 309.807 233.515 309.832 234.777C309.859 236.468 310.556 238.078 311.77 239.254C312.984 240.431 314.616 241.077 316.306 241.052V241.028Z" fill="#C2E8FF"/>
<path d="M330.808 200.678L332.73 199.171L335.169 202.256C334.699 202.631 334.284 203.053 333.814 203.324C333.344 203.596 333.168 203.97 333.487 204.489C333.595 204.678 333.675 204.882 333.726 205.094C334.141 206.354 334.141 206.354 335.496 206.41C335.823 206.41 336.15 206.41 336.461 206.41V210.309C335.728 210.309 335.074 210.309 334.428 210.309C334.053 210.309 333.87 210.396 333.79 210.763C333.722 211.061 333.626 211.352 333.503 211.632C333.009 212.868 333.001 212.868 334.021 213.769L334.819 214.463L332.204 217.404L330.37 215.81C329.652 216.185 328.935 216.535 328.241 216.934C328.172 217.001 328.118 217.081 328.084 217.171C328.049 217.261 328.035 217.357 328.042 217.452C328.106 218.122 328.217 218.784 328.313 219.509L324.43 220.075C324.326 219.366 324.247 218.696 324.103 218.05C324.07 217.942 324.013 217.842 323.936 217.759C323.858 217.676 323.763 217.612 323.657 217.572C322.939 217.389 322.214 217.269 321.408 217.109L320.109 219.182L316.768 217.117C317.127 216.527 317.454 215.961 317.813 215.419C317.87 215.368 317.915 215.303 317.944 215.231C317.973 215.16 317.985 215.082 317.978 215.005C317.972 214.928 317.948 214.853 317.909 214.786C317.869 214.72 317.814 214.664 317.749 214.622C317.471 214.344 317.218 214.042 316.991 213.721C316.378 212.868 316.385 212.868 315.357 213.203C314.95 213.346 314.56 213.474 314.034 213.633L312.798 209.91C313.444 209.695 314.041 209.472 314.663 209.296C314.742 209.286 314.818 209.259 314.887 209.218C314.955 209.177 315.014 209.122 315.059 209.056C315.105 208.991 315.137 208.917 315.152 208.839C315.168 208.761 315.167 208.68 315.15 208.602C315.127 208.038 315.148 207.473 315.213 206.912C315.232 206.84 315.236 206.765 315.225 206.691C315.214 206.617 315.187 206.546 315.148 206.483C315.108 206.419 315.056 206.364 314.995 206.322C314.934 206.279 314.864 206.249 314.791 206.235C314.177 206.019 313.579 205.764 312.933 205.501L314.384 201.85C315.054 202.113 315.676 202.384 316.314 202.591C316.417 202.617 316.524 202.619 316.628 202.597C316.731 202.575 316.828 202.529 316.912 202.463C317.438 201.913 317.916 201.323 318.45 200.709L317.318 198.557L320.771 196.691L321.951 198.836L324.629 198.437L325.14 196.045L328.983 196.843C328.847 197.512 328.727 198.142 328.584 198.772C328.549 198.846 328.531 198.927 328.53 199.009C328.529 199.091 328.545 199.172 328.577 199.247C328.609 199.323 328.657 199.39 328.717 199.446C328.778 199.501 328.849 199.543 328.927 199.569C329.557 199.872 330.155 200.279 330.808 200.678ZM319.646 208.044C319.643 209.032 319.932 209.998 320.477 210.821C321.021 211.645 321.797 212.289 322.706 212.673C323.616 213.056 324.619 213.163 325.588 212.978C326.558 212.794 327.452 212.327 328.157 211.636C328.862 210.945 329.348 210.061 329.552 209.096C329.756 208.13 329.67 207.125 329.305 206.208C328.94 205.291 328.312 204.502 327.5 203.941C326.688 203.379 325.728 203.071 324.741 203.053C324.076 203.036 323.415 203.153 322.797 203.397C322.178 203.64 321.615 204.006 321.14 204.471C320.666 204.937 320.29 205.493 320.034 206.107C319.779 206.721 319.65 207.38 319.654 208.044H319.646Z" fill="#C2E8FF"/>
</g>
<defs>
<linearGradient id="paint0_linear_206_84" x1="177.347" y1="190.664" x2="194.632" y2="190.664" gradientUnits="userSpaceOnUse">
<stop stop-color="#E5C6D6"/>
<stop offset="0.42" stop-color="#EAD4D0"/>
<stop offset="1" stop-color="#F0E9CB"/>
</linearGradient>
<linearGradient id="paint1_linear_206_84" x1="154.944" y1="138.593" x2="213.544" y2="138.593" gradientUnits="userSpaceOnUse">
<stop stop-color="#E5C6D6"/>
<stop offset="0.42" stop-color="#EAD4D0"/>
<stop offset="1" stop-color="#F0E9CB"/>
</linearGradient>
<linearGradient id="paint2_linear_206_84" x1="185.695" y1="289.479" x2="193.668" y2="208.85" gradientUnits="userSpaceOnUse">
<stop stop-color="#010101" stop-opacity="0"/>
<stop offset="0.95" stop-color="#010101"/>
</linearGradient>
<linearGradient id="paint3_linear_206_84" x1="188.725" y1="279.6" x2="188.725" y2="326.855" gradientUnits="userSpaceOnUse">
<stop stop-color="#010101" stop-opacity="0"/>
<stop offset="0.95" stop-color="#010101"/>
</linearGradient>
<linearGradient id="paint4_linear_206_84" x1="179.309" y1="284.097" x2="201.162" y2="172.462" gradientUnits="userSpaceOnUse">
<stop stop-color="white" stop-opacity="0"/>
<stop offset="0.95" stop-color="white"/>
</linearGradient>
<linearGradient id="paint5_linear_206_84" x1="168.131" y1="255.825" x2="199.807" y2="255.825" gradientUnits="userSpaceOnUse">
<stop stop-color="#010101" stop-opacity="0"/>
<stop offset="0.95" stop-color="#010101"/>
</linearGradient>
<linearGradient id="paint6_linear_206_84" x1="178.464" y1="266.469" x2="206.225" y2="266.469" gradientUnits="userSpaceOnUse">
<stop stop-color="white" stop-opacity="0"/>
<stop offset="0.95" stop-color="white"/>
</linearGradient>
<linearGradient id="paint7_linear_206_84" x1="133.943" y1="282.885" x2="176.837" y2="282.885" gradientUnits="userSpaceOnUse">
<stop stop-color="#E5C6D6"/>
<stop offset="0.42" stop-color="#EAD4D0"/>
<stop offset="1" stop-color="#F0E9CB"/>
</linearGradient>
<linearGradient id="paint8_linear_206_84" x1="205.077" y1="282.853" x2="242.573" y2="282.853" gradientUnits="userSpaceOnUse">
<stop stop-color="#E5C6D6"/>
<stop offset="0.42" stop-color="#EAD4D0"/>
<stop offset="1" stop-color="#F0E9CB"/>
</linearGradient>
</defs>
</svg>
